<svg version="1.1" id="Layer_1" xmlns="http://www.w3.org/2000/svg" xmlns:xlink="http://www.w3.org/1999/xlink" x="0px" y="0px"
	 width="50px" height="50px" viewBox="0 0 50 50" enable-background="new 0 0 50 50" xml:space="preserve">
<g>
	<path fill="#FFFFFF" d="M25.177,0.62L2.124,8.733l3.643,30.205L25.202,49.62l19.537-10.827L48.38,8.589L25.177,0.62z"/>
	<path opacity="0.4" fill="#424753" d="M46.08,10.335L25.124,3.188v43.879l17.562-9.72L46.08,10.335z"/>
	<path opacity="0.2" fill="#424753" d="M4.71,10.464l3.122,27.013l17.292,9.59V3.188L4.71,10.464z"/>
	<path fill="#FFFFFF" d="M29.981,25.014L25.162,14.95l-4.243,10.064H29.981z M31.818,29.245H19.044l-2.859,7.149l-5.315,0.098
		l14.254-31.71l14.751,31.71h-4.927L31.818,29.245z"/>
	<path opacity="0.1" fill="#FFFFFF" d="M25.124,4.782l0.038,10.167l4.814,10.072h-4.842l-0.011,4.218l6.694,0.006l3.13,7.248
		l5.086,0.095L25.124,4.782z"/>
</g>
</svg>
