<svg version="1.1" id="Layer_1" xmlns="http://www.w3.org/2000/svg" xmlns:xlink="http://www.w3.org/1999/xlink" x="0px" y="0px"
	 width="266.776px" height="272.78px" viewBox="0 0 266.776 272.78" enable-background="new 0 0 266.776 272.78"
	 xml:space="preserve">
<g>
	<path fill-rule="evenodd" clip-rule="evenodd" fill="#F1D79A" d="M115.229,272.78c-0.852-1.147-11.473-0.902-13.423-1.103
		c-6.869-0.706-13.705-1.919-20.343-3.84c-3.722-1.076-9.294-2.555-11.805-5.824c-4.701-6.145,13.053-1.273,14.007-0.998
		c13.261,3.828,25.096,5.104,38.877,5.055c3.459-0.013,36.508-5.632,36.78-4.49C160.374,266.023,118.314,272.78,115.229,272.78
		C115.103,272.609,118.296,272.78,115.229,272.78z"/>
	<path fill-rule="evenodd" clip-rule="evenodd" fill="#F1D79A" d="M0,158.93c4.902-5.921,0.939-19.767,1.487-26.944
		c5.437,3.569,7.261-1.745,11.144-2.05c-1.863,7.263-5.748,12.316-5.746,20.328c0,9.396-0.454,18.938,1.163,28.241
		c0.729,4.194,15.021,36.2,14.409,37.073c-4.949,7.088-11.285-11.046-13.099-15.119C3.502,187.304,0,173.421,0,158.93
		C0.39,158.458,0,160.157,0,158.93z"/>
	<path fill-rule="evenodd" clip-rule="evenodd" fill="#DEB081" d="M184.229,0c1.646,1.455,5.559,1.349,7.63,2.914
		c3.685,2.783,5.488,7.681,5.281,12.211c-0.355,7.786-9.632,20.04-18.782,17.109C157.064,25.415,163.671,0,184.229,0
		C184.803,0.506,182.39,0,184.229,0z M166.941,16.496c0.391,8.656,5.47,6.053,10.401,9.233c3.054,1.969,0.605,4.166,6.076,2.997
		c4.453-0.951,8.294-4.415,10.139-8.517C202.717-0.162,165.729-3.413,166.941,16.496C166.971,17.145,166.782,13.884,166.941,16.496z
		"/>
	<path fill-rule="evenodd" clip-rule="evenodd" fill="#DEB081" d="M12.631,129.936c-0.162,0.013-11.283,7.218-11.129,1.623
		c3.055-10.577,4.245-20.318,9.556-30.35C21.387,81.692,37.78,64.681,56.505,53.067c8.174-5.07,19.918-8.239,26.526-15.428
		c6.163-6.692,13.628-5.639,21.381-3.597c3.486,5.229,28.86-1.558,30.033,4.752c-1,0.064-5.528,0.032-5.66,1.88
		c-0.215,3.032,23.056,7.039,26.013,7.92c10.871,3.241,21.125,7.611,30.079,14.682c2.947,2.328,35.896,35.46,35.142,36.162
		c3.281-3.049-16.916-26.383-17.358-32.02c-0.611-7.82-2.014-9.893-7.227-15.612c-4.28-4.697-0.556-5.092-5.811-0.972
		c-1.838-13.931,9.906,1.473,11.471,3.064c6.271,6.383,2.366,16.341,8.31,23.638c4.046,4.969,7.828,10.128,11.163,15.604
		c0.778,1.278,3.309,7.768,4.61,8.288c0.001,0.026,0.698,2.193,0.198,2.611c-1.133,0.95-3.634-1.439-3.728,2.011
		c-0.043,1.605,5.048,9.293,3.385,10.405c-0.957,0.636-17.041-32.51-22.456-32.937c-17.302-18.897-38.147-33.171-64.125-36.664
		c-6.301-0.848-26.709-3.624-30.649,3.366c-5.922,10.512-17.31,3.966-26.448,6.142C60.56,61.313,41.735,81.822,29.918,98.449
		c-0.654,0.24-4.203,5.574-4.133,6.227C20.793,112.722,16.826,121.471,12.631,129.936z M126.85,40.821
		c-14.672-3.906-32.113-8.792-44.522,1.051C67.171,53.843,49.238,59.02,35.493,73.583c-5.544,5.874-11.442,12.67-16.07,19.318
		c-2.819,4.049-5.229,8.376-7.222,12.889c-2.062,4.668-1.635,10.599-4.215,14.894c-0.932,1.553,0.031,4.571,2.379,3.476
		c2.46-1.148,1.406-4.737,2.774-5.274c2.045-0.802,11.669-17.502,10.788-18.329c-1.575,1.038-3.164,2.054-4.767,3.049
		c-1.729,0.596-3.423-2.138-1.462-3.306c4.377-2.609,8.398-3.118,11.741-7.522c6.614-8.712,14.2-17.242,23.622-24.096
		c5.818-4.232,11.996-8.133,18.52-11.189c8.31-3.893,12.827-3.374,21.52-2.991c7.131,0.315,10.059-3.981,14.8-8.17
		C112.943,41.876,123.08,46.585,126.85,40.821C125.511,40.464,125.827,42.384,126.85,40.821z"/>
	<path fill-rule="evenodd" clip-rule="evenodd" fill="#F1D79A" d="M194.123,45.089c-3.596,0.155-5.046,1.609-4.5,5.745
		c2.639-2.069,2.419-5.621,4.367-1.22c2.784,6.272,8.417,7.071,8.564,15.004c0.146,7.912,4.396,12.876,8.938,18.91
		c0.982,1.306,11.005,13.606,8.525,15.91c0.754-0.702-32.194-33.834-35.142-36.162c-8.954-7.071-19.208-11.441-30.079-14.682
		c-2.957-0.881-26.228-4.888-26.013-7.92c0.132-1.848,4.66-1.816,5.66-1.88c-0.686-3.688-13.751-0.209-14.879-2.795
		c5.715-1.093,20.297-0.404,24.92,2.831c-1.421,0.007-6.099-0.938-6.162,0.742c-0.064,1.764,25.613,3.092,27.568,5.929
		c-1.878,0.528-4.412-2.25-6.259-1.405c2.522,3.169,9.754,5.034,13.436,6.493c2.162,0.857,11.905,5.796,7.473,0.924
		c1.447,0.149,9.27,1.744,8.04-1.769C187.656,47.105,192.014,42.26,194.123,45.089C193.545,45.114,193.42,44.146,194.123,45.089z"/>
	<path fill-rule="evenodd" clip-rule="evenodd" fill="#F1D79A" d="M204.47,85.78c4.325,0.846,19.971,31.068,20.562,30.675
		c1.252-0.837-2.41-7.894-2.951-8.619c-2.874-3.857,2.398-3.045,3.294-3.796c0.273-0.88,0.206-1.752-0.202-2.617
		c4.864,3.875,8.622,20.102,9.616,26.309c1.957,12.208,3.226,26.055,1.072,38.251c-1.264,7.149-3.262,14.138-5.273,21.104
		c-1.046,3.611-5.452,0.798-4.679-1.698c0.888-2.877,3,1.871,2.917-4.387c-0.073-5.253,0.354-7.067,3.056-9.856
		c0.863-0.895-0.905-3.637-0.89-4.875c1.069,0.428,4.096,1.137,4.298-0.662c0.262-2.321-4.26-1.043-4.48-0.897
		c-2.346-15.002-1.514-29.452-6.627-44.086c-2.448-7.007-5.653-13.766-9.488-20.12C212.814,97.39,204.518,89.12,204.47,85.78
		C205.304,85.943,204.475,86.122,204.47,85.78z M225.927,106.419c0.86,2.484,1.471,5.028,1.831,7.633
		C230.328,112.115,227.324,107.848,225.927,106.419C226.285,107.644,227.532,108.06,225.927,106.419z M226.508,121.069
		c2.89-7.52-1.764,5.044,0.094,4.872C228.294,125.784,226.709,121.398,226.508,121.069
		C225.884,122.693,227.512,122.714,226.508,121.069z M230.699,156.351c-0.185,0.762-0.021,1.356,0.489,1.787
		c1.05,0.002,1.392-3.95,0.042-3.758C230.687,154.878,230.51,155.536,230.699,156.351
		C230.661,156.794,230.68,155.757,230.699,156.351z"/>
	<path fill-rule="evenodd" clip-rule="evenodd" fill="#F1D79A" d="M266.347,98.2c-1.447,9.206-11.396,7.222-16.784,5.185
		c-4.176-1.58-4.954-6.001-4.062-9.933c0.544-2.395,8.139-9.229,8.144-9.207c-0.816-3.628-9.305,7.587-9.489,7.998
		c-3.071,6.862,0.99,10.688,7.009,13.55c-12.535-0.376-10.076-16.781-1.764-21.423c3.102-1.732,6.453-1.798,8.309,0.666
		c0.945,1.257,5.624,7.869,6.102,4.182c1.335,0.553,3.156,5.069,2.966,6.459c-0.43-0.972-1.146-1.634-2.148-1.985
		c-0.284,0.602-4.088,12.536-5.753,10.798C259.911,105.567,265.947,98.62,266.347,98.2C266.135,99.547,265.561,99.027,266.347,98.2z
		"/>
	<path fill-rule="evenodd" clip-rule="evenodd" fill="#F1D79A" d="M237.818,57.174c-0.275-6.427,10.609-4.447,9.848-0.264
		C246.237,64.77,236.883,67.142,237.818,57.174C237.716,54.778,237.757,57.829,237.818,57.174z"/>
	<path fill-rule="evenodd" clip-rule="evenodd" fill="#F1D79A" d="M251.368,73.629c0.361,5.697-9.154,4.899-9.216-0.123
		C242.082,67.4,251.86,66.312,251.368,73.629C251.414,74.353,251.456,72.322,251.368,73.629z"/>
	<path fill-rule="evenodd" clip-rule="evenodd" fill="#DEB081" d="M251.164,105.793c-3.076-1.463-9.636-5.124-8.414-9.576
		c0.375-1.366,9.975-16.062,10.895-11.972c0.06,0.269-8.597,8.261-8.457,12.668c0.191,5.959,9.793,6.475,9.848,9.01
		C253.745,105.88,252.454,105.837,251.164,105.793C249.545,105.023,252.443,106.17,251.164,105.793z"/>
	<path fill-rule="evenodd" clip-rule="evenodd" fill="#DEB081" d="M180.542,51.512c0.651,0.604,1.303,1.208,1.954,1.812
		c-5.066,0.382-19.728-5.29-22.862-9.229C163.669,42.25,176.774,49.665,180.542,51.512C181.117,52.145,179.619,51.06,180.542,51.512
		z"/>
	<path fill-rule="evenodd" clip-rule="evenodd" fill="#DEB081" d="M150.892,40.668c-0.507,2.975-12.622,0.391-12.567-1.097
		C138.426,36.871,150.065,40.061,150.892,40.668C150.656,42.05,150.208,40.166,150.892,40.668z"/>
	<path fill-rule="evenodd" clip-rule="evenodd" fill="#DEB081" d="M266.347,98.2c-0.399,0.42-6.436,7.367-7.472,6.29
		c1.665,1.738,5.469-10.196,5.753-10.798C266.861,94.024,267.125,96.594,266.347,98.2C265.561,99.027,266.37,98.151,266.347,98.2z"
		/>
	<path fill-rule="evenodd" clip-rule="evenodd" fill="#DEB081" d="M263.811,89.218c-0.491,3.796-6.684-3.758-6.425-5.372
		C259.054,84.094,263.513,87.354,263.811,89.218C263.77,89.535,263.764,88.925,263.811,89.218z"/>
	<path fill-rule="evenodd" clip-rule="evenodd" fill="#F1D79A" d="M85.284,55.933c4.692-0.387,9.64,0.639,14.355,0.679
		C95.819,59.458,89.244,56.898,85.284,55.933C87.232,55.772,86.644,56.264,85.284,55.933z"/>
	<path fill-rule="evenodd" clip-rule="evenodd" fill="#DEB081" d="M230.81,164.711c0.221-0.146,4.742-1.424,4.48,0.897
		C235.063,167.625,229.853,167.318,230.81,164.711C231.732,164.102,230.607,165.262,230.81,164.711z"/>
	<path fill-rule="evenodd" clip-rule="evenodd" fill="#F1D79A" d="M182.443,47.136c-3.113-0.178,0.524-3.454,1.541-2.541
		C184.807,45.921,184.293,46.768,182.443,47.136C182.409,47.134,183.462,47.149,182.443,47.136z"/>
	<path fill-rule="evenodd" clip-rule="evenodd" fill="#F1D79A" d="M166.941,16.496c-1.213-19.909,35.775-16.658,26.616,3.713
		c-1.118,2.486-14.662,14.48-15.542,6.977C177.636,23.944,167.311,24.662,166.941,16.496
		C166.782,13.884,166.971,17.145,166.941,16.496z"/>
	<path fill-rule="evenodd" clip-rule="evenodd" fill="#F1D79A" d="M126.85,40.821c-3.026,4.628-10.939,2.213-15.394,3.517
		c-6.124,1.794-8.111,8.588-14.989,9.91c-7.815,1.503-13.257-1.739-21.316,1.662c-6.494,2.74-12.619,6.266-18.449,10.216
		c-5.994,4.062-11.054,8.901-16.172,13.986c-2.188,2.173-9.166,5.709-9.513,9.146c-0.538,5.346-6.926,8.589-11.22,10.118
		c-1.426,0.506-4.705,2.773-1.797,4.211c2.256,1.115,3.951-2.628,5.928-3.03c0.925,0.867-8.418,15.825-9.298,17.112
		c-0.433,0.634-6.588,11.209-7.045,4.782C6.332,104.92,24.518,85.214,35.493,73.583C48.368,59.941,63.963,53.885,79.332,44
		c7.426-4.776,11.701-9.744,21.519-8.185C109.147,37.132,118.749,38.664,126.85,40.821C125.827,42.384,125.511,40.464,126.85,40.821
		z"/>
	<path fill-rule="evenodd" clip-rule="evenodd" fill="#DEB081" d="M225.927,106.419c1.397,1.428,4.401,5.695,1.831,7.633
		C227.397,111.448,226.787,108.903,225.927,106.419C227.532,108.06,226.285,107.644,225.927,106.419z"/>
	<path fill-rule="evenodd" clip-rule="evenodd" fill="#DEB081" d="M226.508,121.069c0.201,0.329,1.786,4.715,0.094,4.872
		C224.744,126.113,229.397,113.549,226.508,121.069C227.512,122.714,225.884,122.693,226.508,121.069z"/>
	<path fill-rule="evenodd" clip-rule="evenodd" fill="#DEB081" d="M230.699,156.351c-0.189-0.815-0.013-1.473,0.531-1.971
		c1.35-0.192,1.008,3.76-0.042,3.758C230.678,157.708,230.515,157.113,230.699,156.351
		C230.68,155.757,230.661,156.794,230.699,156.351z"/>
</g>
</svg>
