<svg version="1.1" id="Layer_1" xmlns="http://www.w3.org/2000/svg" xmlns:xlink="http://www.w3.org/1999/xlink" x="0px" y="0px"
	 width="141.73px" height="283.464px" viewBox="0 -141.734 141.73 283.464" enable-background="new 0 -141.734 141.73 283.464"
	 xml:space="preserve">
<g>
	<path fill="#4E2B80" d="M70.918,141.461c24.105,0,45.36-12.107,58.083-30.553l-41.192-37.54l-14.612,13.31
		c-0.647,0.596-1.464,0.887-2.281,0.887c-0.816,0-1.633-0.291-2.281-0.887L54.028,73.372l-41.193,37.536
		C25.559,129.353,46.813,141.461,70.918,141.461z"/>
	<path fill="#4E2B80" d="M132.632,105.056c5.608-10.118,8.829-21.751,8.829-34.138c0-13.537-3.882-26.139-10.487-36.878
		l-38.14,34.748L132.632,105.056z"/>
	<path fill="#4E2B80" d="M48.999,68.789L10.864,34.04C4.254,44.78,0.376,57.381,0.376,70.918c0,12.387,3.217,24.02,8.825,34.138
		L48.999,68.789z"/>
</g>
<path fill="#7F3F98" d="M127.11,28.396C114.227,11.403,93.885,0.376,70.918,0.376c-22.971,0-43.312,11.027-56.191,28.021
	l56.188,51.206L127.11,28.396z"/>
<g>
	<g>
		<path fill="#4E2B80" d="M70.865-0.649c24.106,0,45.36-12.107,58.083-30.553l-41.191-37.54l-14.613,13.31
			c-0.646,0.596-1.463,0.887-2.281,0.887c-0.816,0-1.633-0.291-2.281-0.887L53.975-68.738L12.781-31.202
			C25.506-12.757,46.76-0.649,70.865-0.649z"/>
		<path fill="#4E2B80" d="M132.578-37.053c5.609-10.118,8.83-21.751,8.83-34.138c0-13.537-3.883-26.139-10.488-36.878L92.781-73.321
			L132.578-37.053z"/>
		<path fill="#4E2B80" d="M48.946-73.321L10.811-108.07C4.2-97.33,0.323-84.729,0.323-71.192c0,12.387,3.217,24.02,8.825,34.138
			L48.946-73.321z"/>
	</g>
	<path fill="#BFBFBF" d="M127.056-113.714c-12.883-16.993-33.225-28.021-56.192-28.021c-22.971,0-43.312,11.027-56.191,28.021
		l56.191,44.972L127.056-113.714z"/>
	<path fill="#7F3F98" d="M127.056-113.714c-12.883-16.993-33.225-28.021-56.192-28.021c-22.971,0-43.312,11.027-56.191,28.021
		l56.191,27.969L127.056-113.714z"/>
</g>
</svg>
