<svg version="1.1" id="Layer_1" xmlns="http://www.w3.org/2000/svg" xmlns:xlink="http://www.w3.org/1999/xlink" x="0px" y="0px"
	 width="50px" height="21.76px" viewBox="0 0 50 21.76" enable-background="new 0 0 50 21.76" xml:space="preserve">
<g>
	<g transform="matrix(1.25,0,0,-1.25,0,114.0125)">
		<g transform="scale(0.1,0.1)">
			<path fill="#FFFFFF" d="M238.937,850.502c-8.609,0-15-4.223-15-14.379c0-7.656,4.219-12.965,14.531-12.965
				c8.734,0,14.672,5.148,14.672,13.281C253.141,845.655,247.828,850.502,238.937,850.502z M221.75,778.787
				c-2.031-2.5-4.062-5.156-4.062-8.289c0-6.242,7.953-8.117,18.906-8.117c9.047,0,21.391,0.633,21.391,9.062
				c0,5-5.937,5.312-13.437,5.789L221.75,778.787z M267.984,850.03c2.812-3.594,5.781-8.594,5.781-15.781
				c0-17.344-13.594-27.492-33.266-27.492c-5,0-9.547,0.617-12.344,1.398L223,799.881l15.297-0.938
				c27.031-1.727,42.969-2.508,42.969-23.273c0-17.977-15.781-28.125-42.969-28.125c-28.273,0-39.055,7.188-39.055,19.531
				c0,7.031,3.125,10.773,8.594,15.938c-5.156,2.172-6.875,6.078-6.875,10.305c0,3.438,1.719,6.562,4.539,9.531
				c2.805,2.961,5.93,5.938,9.688,9.375c-7.664,3.742-13.438,11.871-13.438,23.43c0,17.969,11.875,30.305,35.766,30.305
				c6.719,0,10.781-0.617,14.391-1.562h30.453v-13.277L267.984,850.03"/>
			<path fill="#FFFFFF" d="M309.844,878.416c-8.906,0-14.062,5.16-14.062,14.07c0,8.898,5.156,13.742,14.062,13.742
				c9.062,0,14.219-4.844,14.219-13.742C324.062,883.576,318.906,878.416,309.844,878.416z M289.687,784.53v12.336l7.969,1.094
				c2.203,0.312,2.5,0.781,2.5,3.125v45.934c0,1.715-0.469,2.816-2.031,3.281l-8.438,2.969l1.719,12.648h32.344v-64.832
				c0-2.5,0.156-2.812,2.5-3.125l7.969-1.094V784.53H289.687"/>
			<path fill="#FFFFFF" d="M396,790.592c-6.719-3.281-16.562-6.25-25.469-6.25c-18.594,0-25.625,7.492-25.625,25.156v40.926
				c0,0.934,0,1.562-1.25,1.562h-10.938v13.902c13.75,1.566,19.219,8.445,20.938,25.473H368.5V869.17c0-1.094,0-1.562,1.25-1.562
				h22.031v-15.621H368.5v-37.34c0-9.211,2.188-12.805,10.625-12.805c4.375,0,8.906,1.094,12.656,2.492L396,790.592"/>
			<path fill="#FFFFFF" d="M164.516,831.584l-71.434,71.43c-4.109,4.113-10.781,4.113-14.898,0l-14.832-14.832l18.816-18.816
				c4.371,1.477,9.387,0.484,12.871-3c3.504-3.508,4.488-8.562,2.973-12.953l18.137-18.133c4.387,1.508,9.445,0.535,12.953-2.977
				c4.895-4.895,4.895-12.832,0-17.727c-4.902-4.906-12.836-4.906-17.734,0c-3.684,3.688-4.594,9.094-2.73,13.633l-16.914,16.914
				v-44.508c1.195-0.586,2.32-1.375,3.316-2.367c4.895-4.898,4.895-12.828,0-17.734c-4.898-4.898-12.836-4.898-17.727,0
				c-4.898,4.906-4.898,12.836,0,17.734c1.207,1.203,2.609,2.125,4.102,2.734v44.918c-1.492,0.609-2.891,1.52-4.102,2.734
				c-3.711,3.707-4.605,9.152-2.703,13.707l-18.547,18.551l-48.98-48.977c-4.113-4.117-4.113-10.789,0-14.902l71.434-71.43
				c4.113-4.117,10.781-4.117,14.902,0l71.098,71.094C168.629,820.795,168.629,827.471,164.516,831.584"/>
		</g>
	</g>
</g>
</svg>
