<svg version="1.1" id="Layer_1" xmlns="http://www.w3.org/2000/svg" xmlns:xlink="http://www.w3.org/1999/xlink" x="0px" y="0px"
	 width="50px" height="50px" viewBox="0 0 50 50" enable-background="new 0 0 50 50" xml:space="preserve">
<g>
	<path fill="#FFFFFF" d="M0.565,24.896c0,4.509,1.097,8.601,3.292,12.275c2.194,3.794,5.17,6.78,8.932,8.958
		c3.759,2.179,7.852,3.267,12.276,3.267c4.441,0,8.549-1.088,12.326-3.267c3.777-2.195,6.751-5.177,8.92-8.944
		c2.169-3.77,3.254-7.864,3.254-12.289c0-4.491-1.089-8.601-3.267-12.327c-2.195-3.776-5.177-6.749-8.944-8.919
		c-3.77-2.17-7.865-3.254-12.289-3.254c-4.509,0-8.601,1.098-12.276,3.292c-3.794,2.194-6.78,5.173-8.958,8.932
		C1.653,16.381,0.565,20.471,0.565,24.896L0.565,24.896z M4.648,24.896c0-2.723,0.535-5.351,1.607-7.886
		c1.072-2.534,2.535-4.721,4.389-6.559c1.854-1.854,4.041-3.313,6.559-4.377c2.518-1.062,5.138-1.594,7.861-1.594
		c2.721,0,5.35,0.532,7.886,1.594c2.534,1.064,4.729,2.523,6.584,4.377c1.838,1.838,3.287,4.024,4.351,6.559
		c1.063,2.535,1.596,5.163,1.596,7.886c0,2.927-0.6,5.716-1.8,8.37c-1.199,2.654-2.884,4.947-5.053,6.878
		c-2.169,1.932-4.649,3.33-7.439,4.199v-7.196c0-1.788-0.732-3.183-2.195-4.186c3.59-0.324,6.216-1.234,7.873-2.731
		c1.66-1.497,2.488-3.871,2.488-7.121c0-2.518-0.773-4.636-2.322-6.355c0.308-0.917,0.46-1.803,0.46-2.653
		c0-1.259-0.29-2.417-0.867-3.472c-1.141,0-2.161,0.187-3.063,0.562c-0.902,0.375-2.008,1.022-3.317,1.941
		c-1.582-0.358-3.216-0.537-4.9-0.537c-1.922,0-3.718,0.196-5.384,0.587c-1.276-0.936-2.379-1.596-3.306-1.978
		c-0.928-0.383-1.978-0.575-3.151-0.575c-0.562,1.072-0.843,2.23-0.843,3.472c0,0.885,0.145,1.777,0.434,2.679
		c-1.548,1.668-2.322,3.778-2.322,6.329c0,3.25,0.825,5.615,2.475,7.095c1.65,1.479,4.295,2.391,7.938,2.73
		c-0.97,0.646-1.644,1.591-2.016,2.832c-0.833,0.291-1.702,0.435-2.603,0.435c-0.681,0-1.269-0.153-1.762-0.459
		c-0.153-0.084-0.294-0.174-0.42-0.27c-0.128-0.093-0.26-0.207-0.396-0.344c-0.138-0.136-0.247-0.241-0.332-0.318
		c-0.086-0.077-0.196-0.208-0.332-0.396c-0.137-0.187-0.225-0.306-0.268-0.358c-0.042-0.05-0.145-0.187-0.306-0.407
		c-0.163-0.222-0.252-0.34-0.269-0.358c-0.799-1.054-1.752-1.581-2.857-1.581c-0.597,0-0.894,0.127-0.894,0.382
		c0,0.104,0.144,0.273,0.434,0.511c0.544,0.478,0.834,0.731,0.868,0.766c0.409,0.324,0.639,0.528,0.689,0.612
		c0.494,0.613,0.868,1.285,1.124,2.018c0.952,2.126,2.585,3.189,4.899,3.189c0.374,0,1.106-0.084,2.193-0.255v5.41
		c-2.79-0.869-5.269-2.268-7.438-4.199c-2.169-1.931-3.853-4.224-5.053-6.877C5.247,30.611,4.648,27.822,4.648,24.896L4.648,24.896z
		"/>
</g>
</svg>
