<svg version="1.1" id="Layer_1" xmlns="http://www.w3.org/2000/svg" xmlns:xlink="http://www.w3.org/1999/xlink" x="0px" y="0px"
	 width="400px" height="32.583px" viewBox="0 33.167 400 32.583" enable-background="new 0 33.167 400 32.583" xml:space="preserve"
	>
<g>
	<path fill="#FFFFFF" d="M398.996,57.23c0,3.69-2.991,6.682-6.682,6.682H8.678c-3.69,0-6.682-2.99-6.682-6.682V42.754
		c0-3.69,2.992-6.681,6.682-6.681h383.636c3.689,0,6.682,2.991,6.682,6.681V57.23z"/>
	<g>
		<path d="M18.212,53.659c0.381,0,0.713-0.033,0.997-0.099v0.486c-0.292,0.098-0.628,0.146-1.009,0.146
			c-0.584,0-1.015-0.156-1.292-0.469c-0.278-0.312-0.417-0.804-0.417-1.472v-4.268h-0.979v-0.353l0.979-0.273l0.304-1.496h0.31
			v1.599h1.939v0.523h-1.939v4.182c0,0.507,0.089,0.882,0.268,1.125C17.552,53.535,17.831,53.659,18.212,53.659z"/>
		<path d="M26.104,50.759c0,1.078-0.262,1.921-0.785,2.526c-0.522,0.605-1.244,0.908-2.164,0.908c-0.58,0-1.09-0.141-1.532-0.42
			c-0.442-0.278-0.78-0.681-1.015-1.203s-0.353-1.127-0.353-1.812c0-1.078,0.261-1.918,0.784-2.52s1.24-0.903,2.152-0.903
			c0.908,0,1.62,0.305,2.137,0.915C25.845,48.861,26.104,49.697,26.104,50.759z M20.887,50.759c0,0.908,0.199,1.616,0.599,2.125
			c0.399,0.509,0.963,0.763,1.693,0.763c0.729,0,1.294-0.254,1.693-0.763s0.599-1.217,0.599-2.125c0-0.912-0.202-1.619-0.605-2.122
			c-0.403-0.503-0.97-0.754-1.699-0.754s-1.292,0.25-1.687,0.751C21.084,49.135,20.887,49.843,20.887,50.759z"/>
		<path d="M33.399,50.759c0,1.078-0.262,1.921-0.785,2.526c-0.522,0.605-1.244,0.908-2.164,0.908c-0.58,0-1.09-0.141-1.532-0.42
			c-0.442-0.278-0.78-0.681-1.015-1.203c-0.235-0.522-0.353-1.127-0.353-1.812c0-1.078,0.261-1.918,0.784-2.52
			s1.24-0.903,2.152-0.903c0.908,0,1.62,0.305,2.137,0.915C33.141,48.861,33.399,49.697,33.399,50.759z M28.183,50.759
			c0,0.908,0.199,1.616,0.599,2.125c0.399,0.509,0.963,0.763,1.693,0.763c0.729,0,1.294-0.254,1.693-0.763s0.599-1.217,0.599-2.125
			c0-0.912-0.202-1.619-0.605-2.122c-0.403-0.503-0.97-0.754-1.699-0.754s-1.292,0.25-1.687,0.751
			C28.38,49.135,28.183,49.843,28.183,50.759z"/>
		<path d="M35.831,54.072h-0.602v-9.46h0.602V54.072z"/>
		<path d="M42.142,52.352c0,0.592-0.225,1.047-0.675,1.365c-0.45,0.318-1.088,0.479-1.915,0.479c-0.884,0-1.585-0.137-2.104-0.408
			v-0.65c0.665,0.334,1.366,0.499,2.104,0.499c0.652,0,1.148-0.108,1.486-0.325s0.508-0.506,0.508-0.865
			c0-0.334-0.135-0.612-0.404-0.84c-0.27-0.228-0.712-0.449-1.329-0.668c-0.661-0.239-1.125-0.445-1.392-0.618
			c-0.268-0.172-0.469-0.367-0.605-0.583c-0.136-0.216-0.204-0.481-0.204-0.793c0-0.494,0.208-0.885,0.623-1.173
			c0.416-0.288,0.996-0.432,1.742-0.432c0.713,0,1.39,0.134,2.03,0.401l-0.225,0.547c-0.648-0.268-1.25-0.401-1.805-0.401
			c-0.54,0-0.967,0.089-1.283,0.268c-0.316,0.178-0.474,0.425-0.474,0.742c0,0.344,0.123,0.62,0.368,0.827
			c0.246,0.207,0.725,0.438,1.438,0.693c0.596,0.215,1.029,0.409,1.301,0.581c0.271,0.172,0.475,0.367,0.611,0.587
			C42.074,51.799,42.142,52.057,42.142,52.352z"/>
		<path d="M49.68,47.336c0.28,0,0.58,0.028,0.9,0.085l-0.116,0.577c-0.275-0.069-0.561-0.103-0.857-0.103
			c-0.563,0-1.025,0.239-1.386,0.717c-0.361,0.479-0.541,1.082-0.541,1.812v3.648h-0.602v-6.608h0.511l0.061,1.191h0.043
			c0.271-0.486,0.561-0.828,0.869-1.024C48.87,47.435,49.243,47.336,49.68,47.336z"/>
		<path d="M54.343,54.193c-0.96,0-1.709-0.295-2.247-0.887c-0.538-0.593-0.805-1.422-0.805-2.488c0-1.053,0.259-1.897,0.778-2.531
			c0.519-0.634,1.218-0.952,2.098-0.952c0.778,0,1.392,0.271,1.842,0.815c0.45,0.543,0.675,1.281,0.675,2.213v0.487h-4.76
			c0.008,0.907,0.22,1.601,0.635,2.08c0.415,0.478,1.01,0.717,1.784,0.717c0.377,0,0.708-0.026,0.994-0.08
			c0.286-0.053,0.647-0.166,1.085-0.34v0.547c-0.373,0.162-0.717,0.272-1.033,0.332C55.073,54.164,54.724,54.193,54.343,54.193z
			 M54.167,47.871c-0.636,0-1.147,0.21-1.532,0.629c-0.385,0.419-0.61,1.024-0.675,1.814h4.085c0-0.766-0.166-1.365-0.499-1.796
			C55.215,48.087,54.754,47.871,54.167,47.871z"/>
		<path d="M60.861,54.193c-0.868,0-1.541-0.287-2.019-0.863c-0.479-0.575-0.717-1.406-0.717-2.492c0-1.115,0.239-1.977,0.717-2.587
			s1.163-0.915,2.055-0.915c0.957,0,1.672,0.353,2.146,1.058h0.036l0.109-0.93H63.7v9.601h-0.596v-2.518
			c0-0.495,0.012-0.997,0.037-1.508h-0.037C62.626,53.809,61.878,54.193,60.861,54.193z M60.873,53.659
			c0.802,0,1.375-0.222,1.717-0.663c0.342-0.441,0.514-1.184,0.514-2.225v-0.073c0-0.993-0.172-1.71-0.517-2.152
			c-0.345-0.442-0.894-0.663-1.648-0.663c-0.713,0-1.255,0.251-1.626,0.754c-0.371,0.502-0.556,1.24-0.556,2.212
			c0,0.928,0.181,1.629,0.544,2.101C59.664,53.423,60.188,53.659,60.873,53.659z"/>
		<path d="M66.442,47.464v4.28c0,0.664,0.14,1.146,0.419,1.449c0.28,0.303,0.713,0.453,1.301,0.453c0.786,0,1.365-0.198,1.735-0.597
			c0.371-0.397,0.557-1.044,0.557-1.938v-3.647h0.596v6.608h-0.51l-0.11-0.912h-0.037c-0.43,0.689-1.194,1.033-2.292,1.033
			c-1.504,0-2.255-0.805-2.255-2.414v-4.315H66.442z"/>
		<path d="M73.178,45.628c0-0.389,0.127-0.584,0.383-0.584c0.125,0,0.224,0.051,0.295,0.152c0.071,0.101,0.106,0.245,0.106,0.432
			c0,0.182-0.036,0.326-0.106,0.432c-0.071,0.105-0.169,0.158-0.295,0.158C73.305,46.217,73.178,46.021,73.178,45.628z
			 M73.865,54.072h-0.602v-6.608h0.602V54.072z"/>
		<path d="M78.68,47.336c0.28,0,0.58,0.028,0.9,0.085l-0.116,0.577c-0.275-0.069-0.561-0.103-0.857-0.103
			c-0.563,0-1.025,0.239-1.386,0.717c-0.361,0.479-0.541,1.082-0.541,1.812v3.648h-0.602v-6.608h0.511l0.061,1.191h0.043
			c0.271-0.486,0.561-0.828,0.869-1.024C77.869,47.435,78.242,47.336,78.68,47.336z"/>
		<path d="M83.343,54.193c-0.96,0-1.709-0.295-2.247-0.887c-0.538-0.593-0.805-1.422-0.805-2.488c0-1.053,0.259-1.897,0.778-2.531
			c0.519-0.634,1.218-0.952,2.098-0.952c0.778,0,1.392,0.271,1.842,0.815c0.45,0.543,0.675,1.281,0.675,2.213v0.487h-4.76
			c0.008,0.907,0.22,1.601,0.635,2.08c0.415,0.478,1.01,0.717,1.784,0.717c0.377,0,0.708-0.026,0.994-0.08
			c0.286-0.053,0.647-0.166,1.085-0.34v0.547c-0.373,0.162-0.717,0.272-1.033,0.332C84.072,54.164,83.724,54.193,83.343,54.193z
			 M83.167,47.871c-0.636,0-1.147,0.21-1.532,0.629c-0.385,0.419-0.61,1.024-0.675,1.814h4.085c0-0.766-0.166-1.365-0.499-1.796
			C84.214,48.087,83.754,47.871,83.167,47.871z"/>
		<path d="M89.927,47.336c0.478,0,0.892,0.087,1.24,0.262c0.348,0.174,0.66,0.472,0.936,0.894h0.037
			c-0.024-0.511-0.037-1.011-0.037-1.501v-2.377h0.596v9.46h-0.395l-0.152-1.01h-0.049c-0.502,0.754-1.224,1.131-2.165,1.131
			c-0.912,0-1.609-0.283-2.091-0.852s-0.723-1.395-0.723-2.479c0-1.143,0.239-2.017,0.717-2.621
			C88.32,47.638,89.015,47.336,89.927,47.336z M89.927,47.883c-0.722,0-1.264,0.253-1.626,0.76
			c-0.363,0.507-0.544,1.243-0.544,2.207c0,1.873,0.727,2.81,2.182,2.81c0.746,0,1.293-0.218,1.642-0.65
			c0.349-0.435,0.523-1.149,0.523-2.146v-0.104c0-1.021-0.171-1.756-0.514-2.204C91.247,48.107,90.693,47.883,89.927,47.883z"/>
		<path d="M99.898,53.659c0.381,0,0.713-0.033,0.997-0.099v0.486c-0.292,0.098-0.628,0.146-1.009,0.146
			c-0.584,0-1.015-0.156-1.292-0.469c-0.278-0.312-0.417-0.804-0.417-1.472v-4.268h-0.979v-0.353l0.979-0.273l0.304-1.496h0.31
			v1.599h1.939v0.523h-1.939v4.182c0,0.507,0.089,0.882,0.268,1.125C99.238,53.535,99.517,53.659,99.898,53.659z"/>
		<path d="M107.789,50.759c0,1.078-0.262,1.921-0.785,2.526c-0.522,0.605-1.244,0.908-2.164,0.908c-0.58,0-1.09-0.141-1.532-0.42
			c-0.442-0.278-0.78-0.681-1.015-1.203s-0.353-1.127-0.353-1.812c0-1.078,0.261-1.918,0.784-2.52s1.24-0.903,2.152-0.903
			c0.908,0,1.62,0.305,2.137,0.915C107.53,48.861,107.789,49.697,107.789,50.759z M102.573,50.759c0,0.908,0.199,1.616,0.599,2.125
			c0.399,0.509,0.963,0.763,1.693,0.763c0.729,0,1.294-0.254,1.693-0.763s0.599-1.217,0.599-2.125c0-0.912-0.202-1.619-0.605-2.122
			c-0.403-0.503-0.97-0.754-1.699-0.754s-1.292,0.25-1.687,0.751C102.77,49.135,102.573,49.843,102.573,50.759z"/>
		<path d="M115.644,47.336c0.924,0,1.62,0.291,2.088,0.873c0.468,0.582,0.702,1.432,0.702,2.55c0,1.099-0.246,1.945-0.739,2.541
			c-0.492,0.597-1.185,0.896-2.076,0.896c-0.47,0-0.894-0.098-1.271-0.293c-0.377-0.194-0.675-0.471-0.894-0.826H113.4l-0.17,0.997
			h-0.377v-9.46h0.602v2.377c0,0.356-0.008,0.685-0.024,0.985l-0.018,0.517h0.042c0.251-0.397,0.554-0.689,0.909-0.875
			S115.145,47.336,115.644,47.336z M115.631,47.883c-0.778,0-1.335,0.223-1.672,0.668c-0.336,0.446-0.504,1.182-0.504,2.207v0.104
			c0,0.998,0.175,1.713,0.526,2.146s0.896,0.65,1.638,0.65c0.722,0,1.265-0.254,1.629-0.758c0.365-0.504,0.547-1.224,0.547-2.155
			C117.796,48.838,117.074,47.883,115.631,47.883z"/>
		<path d="M120.787,47.464v4.28c0,0.664,0.14,1.146,0.419,1.449c0.28,0.303,0.713,0.453,1.301,0.453
			c0.786,0,1.365-0.198,1.735-0.597c0.371-0.397,0.557-1.044,0.557-1.938v-3.647h0.596v6.608h-0.511l-0.109-0.912h-0.037
			c-0.43,0.689-1.194,1.033-2.292,1.033c-1.504,0-2.255-0.805-2.255-2.414v-4.315H120.787z"/>
		<path d="M127.523,45.628c0-0.389,0.127-0.584,0.383-0.584c0.125,0,0.224,0.051,0.295,0.152c0.071,0.101,0.106,0.245,0.106,0.432
			c0,0.182-0.036,0.326-0.106,0.432c-0.071,0.105-0.169,0.158-0.295,0.158C127.651,46.217,127.523,46.021,127.523,45.628z
			 M128.21,54.072h-0.602v-6.608h0.602V54.072z"/>
		<path d="M131.025,54.072h-0.602v-9.46h0.602V54.072z"/>
		<path d="M135.658,47.336c0.478,0,0.892,0.087,1.24,0.262c0.348,0.174,0.66,0.472,0.936,0.894h0.037
			c-0.024-0.511-0.037-1.011-0.037-1.501v-2.377h0.596v9.46h-0.395l-0.152-1.01h-0.049c-0.502,0.754-1.224,1.131-2.165,1.131
			c-0.912,0-1.609-0.283-2.091-0.852s-0.723-1.395-0.723-2.479c0-1.143,0.239-2.017,0.717-2.621
			C134.051,47.638,134.746,47.336,135.658,47.336z M135.658,47.883c-0.722,0-1.264,0.253-1.626,0.76
			c-0.363,0.507-0.544,1.243-0.544,2.207c0,1.873,0.727,2.81,2.182,2.81c0.746,0,1.293-0.218,1.642-0.65
			c0.349-0.435,0.523-1.149,0.523-2.146v-0.104c0-1.021-0.171-1.756-0.514-2.204C136.978,48.107,136.424,47.883,135.658,47.883z"/>
		<path d="M147.896,54.072l-0.152-1.047h-0.048c-0.333,0.427-0.674,0.728-1.024,0.904c-0.351,0.176-0.765,0.264-1.243,0.264
			c-0.649,0-1.153-0.166-1.514-0.498s-0.541-0.793-0.541-1.381c0-0.645,0.269-1.146,0.806-1.502
			c0.537-0.355,1.314-0.544,2.332-0.564l1.258-0.036v-0.438c0-0.628-0.127-1.103-0.383-1.422c-0.255-0.32-0.667-0.48-1.234-0.48
			c-0.612,0-1.246,0.17-1.903,0.511l-0.225-0.523c0.726-0.34,1.443-0.511,2.152-0.511c0.726,0,1.268,0.188,1.626,0.565
			c0.358,0.377,0.538,0.965,0.538,1.763v4.396L147.896,54.072L147.896,54.072z M145.464,53.646c0.706,0,1.262-0.201,1.669-0.604
			c0.407-0.403,0.611-0.964,0.611-1.683V50.71l-1.155,0.048c-0.928,0.045-1.59,0.189-1.985,0.436
			c-0.396,0.244-0.593,0.627-0.593,1.146c0,0.413,0.126,0.734,0.38,0.963C144.644,53.532,145.002,53.646,145.464,53.646z"/>
		<path d="M157.812,52.352c0,0.592-0.225,1.047-0.675,1.365c-0.45,0.318-1.088,0.479-1.915,0.479c-0.884,0-1.585-0.137-2.104-0.408
			v-0.65c0.665,0.334,1.366,0.499,2.104,0.499c0.652,0,1.148-0.108,1.486-0.325s0.508-0.506,0.508-0.865
			c0-0.334-0.135-0.612-0.404-0.84c-0.27-0.228-0.712-0.449-1.329-0.668c-0.661-0.239-1.125-0.445-1.392-0.618
			c-0.268-0.172-0.469-0.367-0.605-0.583c-0.136-0.216-0.204-0.481-0.204-0.793c0-0.494,0.208-0.885,0.623-1.173
			c0.416-0.288,0.996-0.432,1.742-0.432c0.713,0,1.39,0.134,2.03,0.401l-0.225,0.547c-0.648-0.268-1.25-0.401-1.805-0.401
			c-0.54,0-0.967,0.089-1.283,0.268c-0.316,0.178-0.474,0.425-0.474,0.742c0,0.344,0.123,0.62,0.368,0.827
			c0.246,0.207,0.725,0.438,1.438,0.693c0.596,0.215,1.029,0.409,1.301,0.581c0.271,0.172,0.475,0.367,0.611,0.587
			C157.744,51.799,157.812,52.057,157.812,52.352z"/>
		<path d="M162.341,54.193c-1.018,0-1.759-0.381-2.225-1.144h-0.042l0.018,0.511c0.016,0.301,0.024,0.629,0.024,0.985v2.517h-0.602
			v-9.6h0.511l0.116,0.942h0.036c0.454-0.713,1.18-1.07,2.177-1.07c0.892,0,1.571,0.293,2.04,0.878
			c0.468,0.586,0.702,1.438,0.702,2.557c0,1.086-0.246,1.929-0.739,2.526C163.864,53.895,163.192,54.193,162.341,54.193z
			 M162.329,53.659c0.677,0,1.201-0.252,1.572-0.755c0.371-0.502,0.556-1.205,0.556-2.109c0-1.941-0.701-2.912-2.104-2.912
			c-0.77,0-1.335,0.212-1.696,0.635c-0.361,0.423-0.541,1.114-0.541,2.07v0.194c0,1.032,0.173,1.771,0.52,2.213
			C160.982,53.438,161.547,53.659,162.329,53.659z"/>
		<path d="M170.938,54.072l-0.152-1.047h-0.048c-0.333,0.427-0.674,0.728-1.024,0.904c-0.351,0.176-0.765,0.264-1.243,0.264
			c-0.649,0-1.153-0.166-1.514-0.498s-0.541-0.793-0.541-1.381c0-0.645,0.269-1.146,0.806-1.502
			c0.537-0.355,1.314-0.544,2.332-0.564l1.258-0.036v-0.438c0-0.628-0.127-1.103-0.383-1.422c-0.255-0.32-0.667-0.48-1.234-0.48
			c-0.612,0-1.246,0.17-1.903,0.511l-0.225-0.523c0.726-0.34,1.443-0.511,2.152-0.511c0.726,0,1.268,0.188,1.626,0.565
			c0.358,0.377,0.538,0.965,0.538,1.763v4.396L170.938,54.072L170.938,54.072z M168.506,53.646c0.706,0,1.262-0.201,1.669-0.604
			c0.407-0.403,0.611-0.964,0.611-1.683V50.71l-1.155,0.048c-0.928,0.045-1.59,0.189-1.985,0.436
			c-0.396,0.244-0.593,0.627-0.593,1.146c0,0.413,0.126,0.734,0.38,0.963C167.686,53.532,168.044,53.646,168.506,53.646z"/>
		<path d="M176.16,54.193c-0.944,0-1.684-0.299-2.219-0.895c-0.535-0.596-0.802-1.426-0.802-2.492c0-1.094,0.277-1.946,0.833-2.557
			c0.556-0.61,1.315-0.915,2.28-0.915c0.571,0,1.119,0.1,1.641,0.298l-0.164,0.535c-0.571-0.19-1.068-0.286-1.489-0.286
			c-0.811,0-1.425,0.25-1.842,0.751c-0.417,0.5-0.626,1.221-0.626,2.161c0,0.892,0.208,1.589,0.626,2.095
			c0.418,0.504,1.001,0.756,1.751,0.756c0.6,0,1.157-0.106,1.672-0.321v0.56C177.398,54.091,176.845,54.193,176.16,54.193z"/>
		<path d="M182.106,54.193c-0.96,0-1.709-0.295-2.247-0.887c-0.538-0.593-0.805-1.422-0.805-2.488c0-1.053,0.259-1.897,0.778-2.531
			c0.519-0.634,1.218-0.952,2.098-0.952c0.778,0,1.392,0.271,1.842,0.815c0.45,0.543,0.675,1.281,0.675,2.213v0.487h-4.76
			c0.008,0.907,0.22,1.601,0.635,2.08c0.415,0.478,1.01,0.717,1.784,0.717c0.377,0,0.708-0.026,0.994-0.08
			c0.286-0.053,0.647-0.166,1.085-0.34v0.547c-0.373,0.162-0.717,0.272-1.033,0.332C182.835,54.164,182.487,54.193,182.106,54.193z
			 M181.93,47.871c-0.636,0-1.147,0.21-1.532,0.629c-0.385,0.419-0.61,1.024-0.675,1.814h4.085c0-0.766-0.166-1.365-0.499-1.796
			C182.978,48.087,182.517,47.871,181.93,47.871z"/>
		<path d="M193.603,52.352c0,0.592-0.225,1.047-0.675,1.365c-0.45,0.318-1.088,0.479-1.915,0.479c-0.884,0-1.585-0.137-2.104-0.408
			v-0.65c0.665,0.334,1.366,0.499,2.104,0.499c0.652,0,1.148-0.108,1.486-0.325s0.508-0.506,0.508-0.865
			c0-0.334-0.135-0.612-0.404-0.84c-0.27-0.228-0.712-0.449-1.329-0.668c-0.661-0.239-1.125-0.445-1.392-0.618
			c-0.268-0.172-0.469-0.367-0.605-0.583c-0.136-0.216-0.204-0.481-0.204-0.793c0-0.494,0.208-0.885,0.623-1.173
			c0.416-0.288,0.996-0.432,1.742-0.432c0.713,0,1.39,0.134,2.03,0.401l-0.225,0.547c-0.648-0.268-1.25-0.401-1.805-0.401
			c-0.54,0-0.967,0.089-1.283,0.268c-0.316,0.178-0.474,0.425-0.474,0.742c0,0.344,0.123,0.62,0.368,0.827
			c0.246,0.207,0.725,0.438,1.438,0.693c0.596,0.215,1.029,0.409,1.301,0.581c0.271,0.172,0.475,0.367,0.611,0.587
			C193.535,51.799,193.603,52.057,193.603,52.352z"/>
		<path d="M199.913,54.072v-4.286c0-0.665-0.14-1.148-0.419-1.45c-0.28-0.302-0.713-0.453-1.301-0.453
			c-0.79,0-1.369,0.2-1.735,0.599c-0.367,0.399-0.55,1.047-0.55,1.942v3.648h-0.602v-9.46h0.602v3.009l-0.031,0.845h0.043
			c0.247-0.397,0.559-0.685,0.936-0.863s0.845-0.268,1.404-0.268c1.5,0,2.25,0.805,2.25,2.414v4.323H199.913z"/>
		<path d="M203.172,47.464v4.28c0,0.664,0.141,1.146,0.42,1.449s0.713,0.453,1.301,0.453c0.785,0,1.365-0.198,1.736-0.597
			c0.369-0.397,0.555-1.044,0.555-1.938v-3.647h0.596v6.608h-0.51l-0.108-0.912h-0.037c-0.431,0.689-1.192,1.033-2.291,1.033
			c-1.504,0-2.256-0.805-2.256-2.414v-4.315H203.172z"/>
		<path d="M211.738,53.659c0.381,0,0.713-0.033,0.996-0.099v0.486c-0.291,0.098-0.629,0.146-1.01,0.146
			c-0.582,0-1.014-0.156-1.291-0.469s-0.416-0.804-0.416-1.472v-4.268h-0.979v-0.353l0.979-0.273l0.303-1.496h0.312v1.599h1.938
			v0.523h-1.938v4.182c0,0.507,0.089,0.882,0.269,1.125C211.077,53.537,211.357,53.659,211.738,53.659z"/>
		<path d="M215.908,53.659c0.381,0,0.713-0.033,0.996-0.099v0.486c-0.291,0.098-0.629,0.146-1.01,0.146
			c-0.582,0-1.014-0.156-1.291-0.469s-0.416-0.804-0.416-1.472v-4.268h-0.979v-0.353l0.979-0.273l0.304-1.496h0.311v1.599h1.939
			v0.523h-1.939v4.182c0,0.507,0.089,0.882,0.269,1.125C215.247,53.537,215.527,53.659,215.908,53.659z"/>
		<path d="M218.936,54.072h-0.602v-9.46h0.602V54.072z"/>
		<path d="M223.818,54.193c-0.961,0-1.709-0.295-2.246-0.887c-0.537-0.593-0.807-1.422-0.807-2.488c0-1.053,0.26-1.897,0.778-2.531
			c0.519-0.634,1.218-0.952,2.099-0.952c0.776,0,1.392,0.271,1.842,0.815c0.449,0.543,0.675,1.281,0.675,2.213v0.487h-4.761
			c0.009,0.907,0.22,1.601,0.636,2.08c0.415,0.478,1.01,0.717,1.784,0.717c0.377,0,0.707-0.026,0.994-0.08
			c0.285-0.053,0.646-0.166,1.084-0.34v0.547c-0.373,0.162-0.717,0.272-1.033,0.332C224.548,54.164,224.199,54.193,223.818,54.193z
			 M223.643,47.871c-0.637,0-1.146,0.21-1.531,0.629c-0.387,0.419-0.61,1.024-0.676,1.814h4.086c0-0.766-0.166-1.365-0.498-1.796
			C224.689,48.087,224.229,47.871,223.643,47.871z"/>
	</g>
	<path fill="#7F3F98" d="M392.314,36.073h-38.42v27.839h38.42c3.689,0,6.682-2.99,6.682-6.682V42.754
		C398.996,39.064,396.005,36.073,392.314,36.073z"/>
	<path fill="#FFFFFF" d="M383.91,55.335l-3.365-3.364c0.611-0.99,0.971-2.151,0.971-3.396c0-3.576-2.91-6.484-6.488-6.484
		c-3.574,0-6.482,2.909-6.482,6.484c0,3.576,2.908,6.486,6.482,6.486c1.246,0,2.408-0.358,3.396-0.971l3.365,3.365
		c0.293,0.293,0.677,0.439,1.061,0.439c0.385,0,0.769-0.146,1.062-0.439C384.496,56.87,384.496,55.921,383.91,55.335z
		 M371.544,48.574c0-1.921,1.562-3.484,3.483-3.484c1.924,0,3.488,1.563,3.488,3.484c0,1.923-1.564,3.486-3.488,3.486
		C373.105,52.062,371.544,50.497,371.544,48.574z"/>
</g>
</svg>
