<svg version="1.1"
	 id="svg2" inkscape:export-filename="/Users/craig/Dropbox/ITS/go-responsive/images/logo-grey-google.png" inkscape:export-xdpi="19.544039" inkscape:export-ydpi="19.544039" inkscape:version="0.48.2 r9819" sodipodi:docname="logo-grey-google.svg" xmlns:sodipodi="http://sodipodi.sourceforge.net/DTD/sodipodi-0.dtd" xmlns:dc="http://purl.org/dc/elements/1.1/" xmlns:inkscape="http://www.inkscape.org/namespaces/inkscape" xmlns:cc="http://creativecommons.org/ns#" xmlns:rdf="http://www.w3.org/1999/02/22-rdf-syntax-ns#" xmlns:svg="http://www.w3.org/2000/svg"
	 xmlns="http://www.w3.org/2000/svg" xmlns:xlink="http://www.w3.org/1999/xlink" x="0px" y="0px" width="552px" height="195px"
	 viewBox="-5.04 -5.4 552 195" enable-background="new -5.04 -5.4 552 195" xml:space="preserve">
<defs>
	
	
		<inkscape:perspective  id="perspective10" inkscape:persp3d-origin="372.04724 : 350.78739 : 1" inkscape:vp_y="0 : 1000 : 0" inkscape:vp_z="744.09448 : 526.18109 : 1" inkscape:vp_x="0 : 526.18109 : 1" sodipodi:type="inkscape:persp3d">
		</inkscape:perspective>
	
		<inkscape:perspective  id="perspective2838" inkscape:persp3d-origin="0.5 : 0.33333333 : 1" inkscape:vp_y="0 : 1000 : 0" inkscape:vp_z="1 : 0.5 : 1" inkscape:vp_x="0 : 0.5 : 1" sodipodi:type="inkscape:persp3d">
		</inkscape:perspective>
	
		<inkscape:perspective  id="perspective2852" inkscape:persp3d-origin="0.5 : 0.33333333 : 1" inkscape:vp_y="0 : 1000 : 0" inkscape:vp_z="1 : 0.5 : 1" inkscape:vp_x="0 : 0.5 : 1" sodipodi:type="inkscape:persp3d">
		</inkscape:perspective>
	
		<inkscape:perspective  id="perspective7795" inkscape:persp3d-origin="0.5 : 0.33333333 : 1" inkscape:vp_y="0 : 1000 : 0" inkscape:vp_z="1 : 0.5 : 1" inkscape:vp_x="0 : 0.5 : 1" sodipodi:type="inkscape:persp3d">
		</inkscape:perspective>
	
		<inkscape:perspective  id="perspective7817" inkscape:persp3d-origin="0.5 : 0.33333333 : 1" inkscape:vp_y="0 : 1000 : 0" inkscape:vp_z="1 : 0.5 : 1" inkscape:vp_x="0 : 0.5 : 1" sodipodi:type="inkscape:persp3d">
		</inkscape:perspective>
	
		<inkscape:perspective  id="perspective8022" inkscape:persp3d-origin="0.5 : 0.33333333 : 1" inkscape:vp_y="0 : 1000 : 0" inkscape:vp_z="1 : 0.5 : 1" inkscape:vp_x="0 : 0.5 : 1" sodipodi:type="inkscape:persp3d">
		</inkscape:perspective>
	
		<inkscape:perspective  id="perspective8467" inkscape:persp3d-origin="0.5 : 0.33333333 : 1" inkscape:vp_y="0 : 1000 : 0" inkscape:vp_z="1 : 0.5 : 1" inkscape:vp_x="0 : 0.5 : 1" sodipodi:type="inkscape:persp3d">
		</inkscape:perspective>
	
		<inkscape:perspective  id="perspective8736" inkscape:persp3d-origin="0.5 : 0.33333333 : 1" inkscape:vp_y="0 : 1000 : 0" inkscape:vp_z="1 : 0.5 : 1" inkscape:vp_x="0 : 0.5 : 1" sodipodi:type="inkscape:persp3d">
		</inkscape:perspective>
</defs>
<sodipodi:namedview  id="base" inkscape:window-maximized="1" inkscape:window-y="0" fit-margin-right="0" inkscape:pageshadow="2" inkscape:window-x="0" inkscape:window-width="1366" inkscape:document-units="px" inkscape:window-height="720" fit-margin-bottom="0" inkscape:current-layer="layer3" inkscape:pageopacity="0.0" borderopacity="1.0" pagecolor="#ffffff" fit-margin-top="0" inkscape:cx="278.58196" showgrid="false" fit-margin-left="0" inkscape:zoom="1.4142136" inkscape:cy="141.71686" bordercolor="#666666">
	</sodipodi:namedview>
<g id="layer11" transform="translate(-1.4836234,-103.27859)" inkscape:groupmode="layer" inkscape:label="Shadow">
</g>
<g id="layer1" transform="translate(21.32461,-447.29589)" inkscape:groupmode="layer" inkscape:label="Basic">
</g>
<g id="layer3" transform="translate(21.32461,-447.29589)" inkscape:groupmode="layer" inkscape:label="Secondary">
	<g id="g3880">
		
			<path id="path3640-5" inkscape:connector-curvature="0" sodipodi:nodetypes="csssssssssssssssssccccccsssssssssssccc" fill="#424652" stroke="#FF00FF" stroke-width="0.2" d="
			M104.076,465.828c0.468-0.878-13.346-9.996-32.427-13.263c-16.715-2.862-37.606-3.334-55.413,6.077
			c-4.457,2.355-7.81,4.618-10.91,6.966c-8.443,6.397-12.778,12.68-16.276,17.659c-3.71,5.281-6.505,13.216-7.664,16.826
			c-1.413,4.399-1.696,8.639-2.337,13.178c-0.417,2.956-0.337,6.153-0.184,9.491c0.343,7.479,1.965,15.631,5.521,23.108
			c2.68,5.635,6.181,10.922,9.561,15.722c5.527,7.849,14.606,12.925,19.917,15.657c4.167,2.146,9.336,4.471,18.142,5.92
			c9.987,1.643,24.722,1.607,48.315-2.084c6.528-1.021,13.672-3.166,21.662-4.812c0.665-0.137,1.076-0.354,1.604-0.49
			c0.49-0.128,0.927-0.051,0.909-0.412c-0.5-10.455-0.317-22.17-0.108-27.43c0.032-0.801,0.224-3.275,0.233-4.322
			c0.008-0.934,0.495-0.822,0.99-1.254l4.884-4.813l-38.234-0.558l-13.396,7.536l26.582-1.117v29.513c0,0-10.783,4.494-25.185,4.187
			c-10.596-0.227-23.338-2.672-35.654-11.931c-19.327-14.53-26.105-34.653-26.217-49.182c-0.056-7.319-0.248-12.918,0.333-15.285
			c0.511-2.084,1.335-7.147,3.542-12.621c2.993-7.424,8.058-15.15,17.384-21.502c5.72-3.896,13.41-7.509,22.47-8.296
			c10.425-0.905,17.792,0.272,23.951,2.665c15.187,5.9,18.228,10.856,20.423,12.58c0.108,0.085,0.597,0.447,0.417,0.706
			c-0.214,0.311-0.241,0.651-0.344,0.837c-0.966,1.746-3.702,6.306-3.702,6.306l5.791-0.628L104.076,465.828z"/>
		<path id="path7733-2" inkscape:connector-curvature="0" sodipodi:nodetypes="ccscssccssscc" fill="#424652" d="M161.924,491.829
			c-2.152,0.056-3.426,0.234-3.426,0.234c1.797-0.411-43.762,5.057-39.346,49.944c3.81,38.729,46.89,37.049,46.89,37.049
			c10.098,0.479,48.231-10.008,41.846-50.157c-2.044-12.856-7.662-21.391-14.129-26.919
			C182.679,492.509,168.38,491.662,161.924,491.829L161.924,491.829z M159.605,497.915c8.72,0.022,23.712,4.158,28.473,30.707
			c6.689,37.303-10.336,40.704-14.236,42.687c-5.181,2.634-28.518,5.021-36.835-33.196c-8.205-37.697,17.383-39.509,15.917-39.346
			C152.923,498.766,155.641,497.905,159.605,497.915z"/>
		<path id="path7733-8-1" inkscape:connector-curvature="0" sodipodi:nodetypes="ccscssccssscc" fill="#424652" d="M262.864,490.908
			c-2.152,0.056-3.426,0.234-3.426,0.234c1.797-0.411-43.762,5.057-39.347,49.943c3.81,38.729,46.89,37.05,46.89,37.05
			c10.098,0.479,48.232-10.008,41.846-50.157c-2.043-12.856-7.66-21.391-14.129-26.919
			C283.618,491.588,269.319,490.741,262.864,490.908z M260.544,496.994c8.721,0.022,23.713,4.158,28.473,30.707
			c6.689,37.304-10.336,40.705-14.236,42.687c-5.181,2.635-28.517,5.021-36.835-33.196c-8.204-37.697,17.384-39.509,15.917-39.346
			C253.862,497.845,256.581,496.984,260.544,496.994z"/>
		
			<path id="path8122-4" inkscape:connector-curvature="0" sodipodi:nodetypes="csscscscscsssssssssssccccccscscccsssssssc" fill="#424652" d="
			M359.974,493.957c-1.627,0-5.447,0.091-10,0.915c-10.766,1.947-25.646,9.053-29.855,23.854
			c-6.514,22.892,10.256,31.983,10.256,31.983s5.873,3.451,8.299,4.129c7.289,2.034,15.045,1.084,15.045,1.084
			s-3.092,10.238,3.107,17.471c1.48,1.727,0.404,1.788,0.404,1.788s-27.094-0.7-39.922,12.917
			c-12.826,13.616-5.873,26.152-5.873,26.152s6.721,16.387,35.729,17.215c29.137,0.832,47.158-16.425,48.73-29.451
			c0.791-6.547-0.104-12.68-3.383-18.045c-3.189-5.217-8.672-9.709-14.023-14.087c-3.324-2.721-5.639-4.117-7.129-5.682
			c-1.408-1.478-1.645-3.382-1.596-4.81c0.07-1.994,1.121-4.439,4.617-8.49c6.381-7.39,7.998-6.47,11.854-12.001
			c1.156-1.659,2.006-4.078,3.191-7.682c0.715-2.171,0.596-4.419,0.596-6.512c0-4.525-1.086-8.835-2.893-12.47
			c-3.359-6.754-9.125-11.139-9.236-11.47h10.107l11.449-6.703l-38.623-0.106C360.825,493.957,360.517,493.957,359.974,493.957z
			 M351.675,500.234c5.891,0.041,14.742,3.093,20.045,19.003c9.102,27.303-9.959,31.473-9.959,31.473s-21.84,3.363-25.854-20.918
			c-4.09-24.734,5.869-26.072,9.768-28.515C345.675,501.277,348.14,500.21,351.675,500.234z M363.741,580.672
			c0,0,17.389,10.658,19.023,18.471c1.832,8.753,1.955,15.128-11.32,22.109c-3.92,2.062-10.799,2.302-15.131,2.319
			c-10.646,0.046-18.688-4.053-22.662-6.107c-2.066-1.067-13.537-13.948-5.043-25.471c2.137-2.899,4.504-4.184,6.703-5.661
			c4.68-3.144,9.275-4.606,17.938-5.362C356.132,580.718,359.97,580.93,363.741,580.672L363.741,580.672z"/>
		<path id="path8279-8" inkscape:connector-curvature="0" sodipodi:nodetypes="cccscsccccscc" fill="#424652" d="M397.464,453.873
			l13.574-6.577l25.75,0.14c0,0-6.857,3.358-7.418,8.537c-0.559,5.178,0,106.777,0,106.777c0.145,2.659-1.037,5.808,6.158,6.508
			c8.984,0.874,10.496,1.05,10.496,1.05l-6.297,4.758l-33.588-0.279l3.639-3.919c0,0,1.959-1.54,1.82-7.978
			c-0.141-6.438-0.211-108.946-0.211-108.946L397.464,453.873L397.464,453.873z"/>
		<path id="path8363-6" inkscape:connector-curvature="0" sodipodi:nodetypes="cssssscscccssccssscsscssc" fill="#424652" d="
			M492.733,491.501c-0.641,0.003-3.191-0.14-3.887-0.086c-24.527,1.887-35.85,15.78-39.623,28.472
			c-3.773,12.693-0.699,31.219,4.617,39.453c5.318,8.233,16.467,18.511,34.133,18.854c17.668,0.342,27.119-8.073,32.941-13.896
			c0.387-0.386,0.682-1.191,0.682-1.191s-11.141,6.296-22.473,6.171c-12.27-0.135-31.447-12.044-36.174-37.048
			c4.609-0.364,8.469-0.601,13.533-0.511l43.07-17.662c0,0-1.043-5.608-5.406-11.129c-2.725-3.45-7.162-6.759-12.172-8.98
			C498.64,492.467,497.056,492.339,492.733,491.501z M482.101,497.522c0.572-0.012,1.135,0.004,1.682,0.021
			c3.395,0.105,6.201,0.796,8.703,2.404c1.676,1.077,3.027,2.664,5.021,4.405c3.857,3.366,3.768,7.725,3.768,7.725
			c-0.068,0.984,0.811,2.275-1.404,3.639c-5.605,3.453-17.488,8.005-27.408,12.086c-3.287,1.352-6.742,2.5-9.172,3.746
			c0,0-2.023-11.575,1.361-21.131c1.811-5.107,5.705-9.527,11.066-11.555C478.474,497.82,480.388,497.558,482.101,497.522z"/>
	</g>
</g>
</svg>
