<svg version="1.1" id="Layer_1" xmlns="http://www.w3.org/2000/svg" xmlns:xlink="http://www.w3.org/1999/xlink" x="0px" y="0px"
	 width="50px" height="50px" viewBox="0 0 50 50" enable-background="new 0 0 50 50" xml:space="preserve">
<g>
	<g>
		<path fill="#4E2B80" d="M10.769,0.564h2.214v2.188h2.025V0.564h2.215v6.625h-2.215V4.971h-2.025v2.218h-2.214V0.564z"/>
		<path fill="#4E2B80" d="M20.134,2.761h-1.949V0.564h6.113v2.197h-1.95v4.428h-2.214V2.761L20.134,2.761z"/>
		<path fill="#4E2B80" d="M25.27,0.564h2.309l1.42,2.328l1.419-2.328h2.31v6.625h-2.205V3.905l-1.523,2.355h-0.037l-1.525-2.355
			v3.284H25.27V0.564z"/>
		<path fill="#4E2B80" d="M33.829,0.564h2.215V5h3.114v2.189h-5.329V0.564z"/>
	</g>
	<path fill="#4E2B80" d="M19.217,26.175h5.753v-4.462h-6.151L19.217,26.175z M7.578,10.094l3.167,35.523l14.216,3.947l14.23-3.945
		l3.172-35.525H7.578z M36.478,43.358L24.97,46.548v-4.521l-0.007,0.001l-8.925-2.478l-0.625-6.996h4.375l0.324,3.63l4.852,1.311
		l0.006-0.002v-6.962h-9.737l-1.175-13.176H24.97v-4.357h14.217L36.478,43.358z"/>
	<path fill="#7F3F98" enable-background="new    " d="M30.333,30.531H24.97v6.962l4.857-1.311L30.333,30.531z M24.97,12.999v4.357
		h10.913l-0.391,4.357H24.97v4.462h10.125l-1.196,13.376l-8.929,2.477v4.521l11.507-3.189l2.71-30.36H24.97L24.97,12.999z"/>
	<g opacity="0.2">
		<polygon fill="#231F20" points="24.97,17.355 14.058,17.355 15.233,30.531 24.97,30.531 24.97,26.175 19.217,26.175 
			18.819,21.712 24.97,21.712 		"/>
		<polygon fill="#231F20" points="24.97,37.493 24.964,37.495 20.112,36.185 19.788,32.555 15.414,32.555 16.038,39.551 
			24.963,42.028 24.97,42.027 		"/>
	</g>
</g>
</svg>
