<svg version="1.1" id="Layer_1" xmlns="http://www.w3.org/2000/svg" xmlns:xlink="http://www.w3.org/1999/xlink" x="0px" y="0px"
	 width="50px" height="50px" viewBox="0 0 50 50" enable-background="new 0 0 50 50" xml:space="preserve">
<g>
	<path fill="#4E2B80" d="M24.752,0.5c-13.531,0-24.5,10.969-24.5,24.5c0,13.531,10.969,24.501,24.5,24.501
		c13.531,0,24.5-10.97,24.5-24.501C49.252,11.469,38.283,0.5,24.752,0.5L24.752,0.5z"/>
	<path fill="#7F3F98" d="M24.752,5.258c5.273,0,10.231,2.053,13.96,5.783c3.729,3.728,5.783,8.687,5.783,13.959
		c0,5.274-2.054,10.231-5.783,13.961c-3.729,3.729-8.687,5.783-13.96,5.783s-10.231-2.055-13.96-5.783
		C7.063,35.231,5.009,30.274,5.009,25c0-5.273,2.054-10.231,5.783-13.959C14.521,7.311,19.479,5.258,24.752,5.258"/>
	<polygon fill="#FFFFFF" points="19.688,24.092 12.376,18.474 12.376,31.403 	"/>
	<polygon fill="#FFFFFF" points="37.301,15.864 12.462,15.864 24.872,25.396 	"/>
	<polygon fill="#FFFFFF" points="28.351,25.404 24.871,28.072 21.386,25.396 12.406,34.375 37.32,34.375 	"/>
	<polygon fill="#FFFFFF" points="30.05,24.102 37.366,31.418 37.366,18.489 	"/>
</g>
</svg>
