<svg version="1.1" id="Layer_1" xmlns="http://www.w3.org/2000/svg" xmlns:xlink="http://www.w3.org/1999/xlink" x="0px" y="0px"
	 width="50px" height="50px" viewBox="0 0 50 50" enable-background="new 0 0 50 50" xml:space="preserve">
<g>
	<g>
		<path fill="#FFFFFF" d="M25.118,49.395c8.37,0,15.755-4.205,20.174-10.611L30.984,25.746l-5.075,4.624
			c-0.226,0.204-0.509,0.308-0.793,0.308c-0.283,0-0.567-0.104-0.792-0.308l-5.073-4.622L4.945,38.785
			C9.364,45.189,16.746,49.395,25.118,49.395z"/>
		<path fill="#FFFFFF" d="M46.553,36.75c1.948-3.514,3.064-7.552,3.064-11.856c0-4.699-1.347-9.078-3.643-12.808L32.729,24.154
			L46.553,36.75z"/>
		<path fill="#FFFFFF" d="M17.505,24.154L4.26,12.085c-2.295,3.73-3.643,8.109-3.643,12.808c0,4.305,1.117,8.343,3.064,11.856
			L17.505,24.154z"/>
	</g>
	<path fill="#FFFFFF" d="M44.633,10.124c-4.472-5.901-11.537-9.729-19.515-9.729c-7.978,0-15.043,3.829-19.517,9.729l19.515,17.785
		L44.633,10.124z"/>
</g>
</svg>
