<svg version="1.1" id="Layer_1" xmlns="http://www.w3.org/2000/svg" xmlns:xlink="http://www.w3.org/1999/xlink" x="0px" y="0px"
	 width="50px" height="50px" viewBox="0 0 50 50" enable-background="new 0 0 50 50" xml:space="preserve">
<g>
	<path fill="#4E2B80" d="M24.999,0.5c-13.531,0-24.5,10.97-24.5,24.5c0,13.531,10.969,24.501,24.5,24.501
		C38.529,49.501,49.5,38.531,49.5,25C49.5,11.47,38.529,0.5,24.999,0.5L24.999,0.5z"/>
	<path fill="#7F3F98" d="M24.999,5.258c5.274,0,10.23,2.054,13.96,5.783c3.729,3.729,5.783,8.686,5.783,13.959
		c0,5.275-2.055,10.231-5.783,13.961c-3.729,3.729-8.686,5.783-13.96,5.783c-5.275,0-10.23-2.055-13.959-5.783
		C7.31,35.231,5.257,30.275,5.257,25c0-5.273,2.053-10.23,5.783-13.959C14.769,7.312,19.724,5.258,24.999,5.258"/>
	<ellipse fill="#FFFFFF" cx="17.224" cy="15.458" rx="2.704" ry="2.725"/>
	<rect x="14.961" y="20.118" fill="#FFFFFF" width="4.57" height="14.772"/>
	<path fill="#FFFFFF" d="M26.844,20.118h-4.389V34.89h4.389c0,0,0-5.478,0-7.753c0-2.077,0.958-3.315,2.783-3.315
		c1.682,0,2.49,1.188,2.49,3.315s0,7.753,0,7.753h4.549c0,0,0-5.396,0-9.352c0-3.957-2.241-5.87-5.373-5.87
		s-4.449,2.439-4.449,2.439V20.118L26.844,20.118z"/>
</g>
</svg>
