<svg version="1.1" id="Layer_1" xmlns="http://www.w3.org/2000/svg" xmlns:xlink="http://www.w3.org/1999/xlink" x="0px" y="0px"
	 width="50px" height="50px" viewBox="0 0 50 50" enable-background="new 0 0 50 50" xml:space="preserve">
<g>
	<path fill="#4E2B80" d="M25.06,0.254c-13.531,0-24.5,10.97-24.5,24.5c0,13.531,10.969,24.501,24.5,24.501
		c13.53,0,24.5-10.97,24.5-24.501C49.561,11.224,38.59,0.254,25.06,0.254L25.06,0.254z"/>
	<path fill="#7F3F98" d="M25.06,5.012c5.274,0,10.231,2.054,13.96,5.783c3.729,3.729,5.782,8.686,5.782,13.959
		c0,5.275-2.055,10.231-5.782,13.961c-3.729,3.729-8.687,5.783-13.96,5.783c-5.275,0-10.23-2.055-13.959-5.783
		c-3.729-3.729-5.783-8.686-5.783-13.961c0-5.273,2.053-10.23,5.783-13.959C14.83,7.066,19.785,5.012,25.06,5.012"/>
	<path fill="#FFFFFF" d="M39.347,23.365c0-2.517-0.773-4.635-2.321-6.353c0.307-0.918,0.46-1.803,0.46-2.653
		c0-1.258-0.291-2.416-0.867-3.47c-1.142,0-2.161,0.186-3.062,0.561c-0.902,0.375-2.008,1.021-3.316,1.94
		c-1.582-0.358-3.215-0.536-4.899-0.536c-1.921,0-3.716,0.196-5.382,0.587c-1.275-0.936-2.377-1.595-3.304-1.978
		c-0.927-0.383-1.977-0.574-3.15-0.574c-0.561,1.071-0.842,2.229-0.842,3.47c0,0.885,0.144,1.776,0.433,2.679
		c-1.547,1.668-2.321,3.776-2.321,6.327c0,3.25,0.824,5.613,2.475,7.093c1.65,1.479,4.294,2.391,7.935,2.729
		c-0.97,0.646-1.643,1.591-2.016,2.831c-0.833,0.291-1.702,0.435-2.602,0.435c-0.681,0-1.269-0.153-1.762-0.459
		c-0.153-0.084-0.293-0.174-0.42-0.269c-0.127-0.093-0.26-0.208-0.396-0.344c-0.138-0.136-0.247-0.242-0.332-0.318
		c-0.086-0.078-0.195-0.209-0.333-0.396c-0.136-0.187-0.225-0.307-0.267-0.358c-0.043-0.05-0.146-0.188-0.306-0.407
		c-0.163-0.222-0.253-0.34-0.269-0.358c-0.798-1.053-1.752-1.58-2.856-1.58c-0.596,0-0.893,0.126-0.893,0.382
		c0,0.103,0.144,0.273,0.433,0.51c0.544,0.478,0.834,0.731,0.868,0.766c0.408,0.323,0.638,0.528,0.688,0.612
		c0.494,0.613,0.868,1.284,1.123,2.016c0.952,2.126,2.584,3.189,4.898,3.189c0.373,0,1.105-0.085,2.192-0.254v4.344
		c1.953,0.635,4.012,0.97,6.125,0.97s4.171-0.335,6.123-0.969v-6.132c0-1.786-0.731-3.181-2.194-4.184
		c3.589-0.324,6.214-1.234,7.871-2.73C38.519,28.986,39.347,26.614,39.347,23.365z"/>
</g>
</svg>
