<svg version="1.1" id="Layer_1" xmlns="http://www.w3.org/2000/svg" xmlns:xlink="http://www.w3.org/1999/xlink" x="0px" y="0px"
	 width="50px" height="14.88px" viewBox="0 0 50 14.88" enable-background="new 0 0 50 14.88" xml:space="preserve">
<g>
	<path fill="#4E2B80" d="M14.783,5.976L14.783,5.976l-0.392,1.387L14.783,5.976L14.783,5.976z"/>
	<path fill="#4E2B80" d="M16.796,8.988l-0.431-0.002L16.796,8.988z"/>
	<path fill="#4E2B80" d="M16.686,11.06L16.686,11.06l-2.584,0.01L16.686,11.06L16.686,11.06z"/>
	<path fill="#4E2B80" d="M17.228,8.991l-0.432-0.003L17.228,8.991z"/>
	<path fill="#4E2B80" d="M16.912,10.884l0.45-1.717L16.912,10.884L16.912,10.884L16.912,10.884z"/>
	<path fill="#4E2B80" d="M26.428,2.977L25.589,6.92L26.428,2.977z"/>
	<path fill="#4E2B80" d="M24.272,2.977l-0.637,2.945L24.272,2.977L24.272,2.977z"/>
	<path fill="#4E2B80" d="M26.284,2.8h-1.793c-0.1,0-0.198,0.08-0.219,0.177l-0.637,2.946l-0.637,2.945
		c-0.021,0.098-0.12,0.177-0.219,0.177h-1.27c-1.256,0-1.11-0.868-0.854-2.059c0.003-0.012,0.005-0.023,0.008-0.036l0.028-0.15
		c0.002-0.01,0.004-0.02,0.005-0.028l0.057-0.306l0.062-0.327c0.019-0.099,0.047-0.243,0.065-0.333l0.29-1.414l0.29-1.414
		C21.48,2.88,21.415,2.8,21.316,2.8h-1.841c-0.1,0-0.198,0.08-0.218,0.177l-0.396,1.878l-0.396,1.877c0,0.001,0,0.002-0.001,0.003
		L18.428,6.91c-0.456,2.081-0.335,4.066,2.143,4.128c0.041,0.002,0.072,0.002,0.072,0.002h3.889c0.1,0,0.198-0.08,0.219-0.178
		l0.839-3.942l0.839-3.943C26.448,2.879,26.384,2.8,26.284,2.8L26.284,2.8z"/>
	<path fill="#4E2B80" d="M33.438,9.065c0.1,0,0.165,0.08,0.145,0.178l-0.174,0.851"/>
	<path fill="#4E2B80" d="M33.235,10.945l0.174-0.852L33.235,10.945C33.235,10.945,33.235,10.945,33.235,10.945L33.235,10.945z"/>
	<path fill="#4E2B80" d="M33.017,11.125L33.017,11.125c-0.526,0.004-2.112,0.016-3.305,0.016
		C31.163,11.14,33.017,11.125,33.017,11.125L33.017,11.125z"/>
	<path fill="#4E2B80" d="M28.642,7.969c-0.001-0.093,0.105-0.254,0.205-0.254l-0.225-0.003C28.521,8.726,28.642,7.969,28.642,7.969
		L28.642,7.969z"/>
	<path fill="#4E2B80" d="M29.875,11.14c-0.011,0-0.022,0-0.034,0C29.853,11.14,29.864,11.14,29.875,11.14z"/>
	<path fill="#4E2B80" d="M33.438,9.065c0.1,0,0.165,0.08,0.145,0.178l-0.174,0.851l-0.028,0.14"/>
	<path fill="#4E2B80" d="M30.725,11.138h-0.008H30.725z"/>
	<path fill="#4E2B80" d="M30.284,11.139h-0.025H30.284z"/>
	<path fill="#4E2B80" d="M30.149,11.14c-0.014,0-0.028,0-0.042,0C30.121,11.14,30.136,11.14,30.149,11.14z"/>
	<path fill="#4E2B80" d="M30.013,11.14h-0.037H30.013z"/>
	<path fill="#4E2B80" d="M30.259,11.139c-0.037,0-0.073,0-0.109,0C30.186,11.139,30.222,11.139,30.259,11.139z"/>
	<path fill="#4E2B80" d="M30.717,11.138c-0.145,0-0.289,0.001-0.433,0.001C30.428,11.139,30.572,11.138,30.717,11.138z"/>
	<path fill="#4E2B80" d="M33.018,11.124L33.018,11.124c-0.387,0.004-1.342,0.011-2.294,0.015
		C31.676,11.134,32.631,11.127,33.018,11.124z"/>
	<path fill="#4E2B80" d="M33.235,10.946l0.146-0.713L33.235,10.946L33.235,10.946L33.235,10.946z"/>
	<path fill="#4E2B80" d="M30.107,11.14h-0.095H30.107z"/>
	<path fill="#4E2B80" d="M29.84,11.14h-0.128H29.84z"/>
	<path fill="#4E2B80" d="M29.976,11.14h-0.101H29.976z"/>
	<path fill="#4E2B80" d="M3.743,7.99l0.279-1.235L3.703,8.167L3.397,9.605l0.268-1.261C3.686,8.247,3.721,8.087,3.743,7.99
		L3.743,7.99z"/>
	<path fill="#4E2B80" d="M7.077,2.779h-1.97c-0.1,0-0.199,0.08-0.221,0.177L4.7,3.78L4.513,4.604
		C4.491,4.701,4.554,4.781,4.654,4.781h1.985c0.1,0,0.198-0.08,0.22-0.177L7.039,3.78L7.22,2.956v0
		C7.241,2.858,7.177,2.779,7.077,2.779L7.077,2.779z"/>
	<path fill="#4E2B80" d="M6.648,5.521L6.648,5.521L6.071,8.193L6.648,5.521z"/>
	<path fill="#4E2B80" d="M0.927,14.375c0,0,0.993,0.013,1.624,0.013C2.072,14.388,1.28,14.379,0.927,14.375
		C0.927,14.375,0.927,14.375,0.927,14.375L0.927,14.375z"/>
	<path fill="#4E2B80" d="M4.3,5.521L4.021,6.755L4.3,5.521z"/>
	<path fill="#4E2B80" d="M6.506,5.344H4.521c-0.1,0-0.199,0.08-0.221,0.177L4.021,6.755L3.743,7.99
		C3.721,8.087,3.686,8.247,3.665,8.344L3.397,9.605l-0.268,1.261c-0.021,0.097-0.063,0.254-0.096,0.349c0,0-0.371,1.104-0.994,1.091
		c-0.026-0.001-0.052-0.001-0.078-0.002c-0.302-0.006-0.54-0.01-0.54-0.01h0c-0.1-0.001-0.199,0.076-0.223,0.173l-0.206,0.865
		l-0.206,0.865c-0.023,0.097,0.039,0.177,0.138,0.178c0.354,0.005,1.145,0.014,1.625,0.014c1.557,0,2.378-0.863,2.904-3.346
		l0.616-2.85l0.578-2.672C6.669,5.423,6.605,5.344,6.506,5.344L6.506,5.344z"/>
	<path fill="#4E2B80" d="M34.703,11.04c-0.1,0-0.164-0.08-0.143-0.178l1.492-6.994"/>
	<path fill="#4E2B80" d="M36.778,10.862l0.604-2.985L36.778,10.862z"/>
	<path fill="#4E2B80" d="M34.582,10.951c-0.013-0.049-0.005-0.168,0.016-0.266l0.709-3.32l-0.747,3.497
		c-0.021,0.098,0.044,0.178,0.144,0.178h0.182C34.785,11.04,34.594,11,34.582,10.951L34.582,10.951z"/>
	<path fill="#4E2B80" d="M36.66,11c-0.054,0.021-0.18,0.04-0.279,0.04h0.181c0.1,0,0.197-0.08,0.218-0.178l0.035-0.178
		C36.795,10.782,36.715,10.977,36.66,11L36.66,11z"/>
	<path fill="#4E2B80" d="M37.081,9.369l0.267-1.317c0,0.001,0,0.002-0.001,0.003L37.081,9.369L37.081,9.369z"/>
	<path fill="#4E2B80" d="M42.973,4.336l0.082,0.34c0.022,0.097-0.04,0.176-0.14,0.176"/>
	<path fill="#4E2B80" d="M36.814,10.684L37.08,9.37L36.814,10.684z"/>
	<path fill="#4E2B80" d="M42.891,3.988l0.082,0.348L42.891,3.988z"/>
	<path fill="#4E2B80" d="M37.347,8.051c0.021-0.097,0.053-0.255,0.073-0.352l0.285-1.333l-0.322,1.511L37.347,8.051L37.347,8.051z"
		/>
	<path fill="#4E2B80" d="M36.078,3.753c-0.021,0.094-0.046,0.213-0.062,0.292l-0.709,3.32l0.747-3.497L36.078,3.753L36.078,3.753z"
		/>
	<path fill="#4E2B80" d="M43.055,4.676l-0.082-0.34l-0.082-0.348L42.85,3.812c-0.161-0.626-0.635-0.988-1.662-0.988l-1.601-0.001
		L38.114,2.82h-1.658c-0.1,0-0.198,0.08-0.219,0.177l0,0l-0.073,0.346l-0.087,0.409l-0.023,0.115l-0.747,3.497l-0.708,3.32
		c-0.021,0.098-0.028,0.217-0.017,0.266s0.203,0.089,0.303,0.089h1.496c0.1,0,0.226-0.019,0.279-0.04
		c0.055-0.022,0.135-0.218,0.154-0.315l0.266-1.315l0.267-1.314c0,0,0-0.002,0-0.003l0.036-0.175l0.322-1.511l0.285-1.334
		c0.021-0.097,0.119-0.176,0.219-0.176l4.706-0.002C43.015,4.852,43.077,4.773,43.055,4.676L43.055,4.676z"/>
	<path fill="#4E2B80" d="M49.113,1.603c-0.1,0-0.263,0.001-0.362,0.001h-1.507c-0.1,0-0.227,0.067-0.283,0.149l-3.331,4.88
		c-0.056,0.083-0.12,0.07-0.143-0.027l-0.245-1.075c-0.021-0.097-0.122-0.176-0.221-0.176H40.88c-0.1,0-0.159,0.078-0.132,0.174
		l0.96,3.362c0.027,0.096,0.029,0.253,0.005,0.35l-0.419,1.627c-0.024,0.097,0.037,0.176,0.137,0.176h2.116
		c0.1,0,0.201-0.079,0.226-0.176l0.419-1.627C44.216,9.144,44.285,9,44.345,8.92l5.408-7.178c0.061-0.08,0.027-0.144-0.072-0.144
		L49.113,1.603L49.113,1.603z"/>
	<path fill="#4E2B80" d="M32.1,5.813V5.811c-0.012,0.108-0.112,0.188-0.212,0.188h-2.715c-0.094,0-0.142-0.064-0.127-0.143
		c0-0.002,0.001-0.004,0.002-0.006c0,0-0.001,0-0.002,0.001c0.001-0.003,0.001-0.006,0.002-0.009c0,0,0.005-0.019,0.013-0.046
		c0.259-0.689,0.787-1.142,1.779-1.142C31.958,4.653,32.176,5.199,32.1,5.813L32.1,5.813z M31.304,2.679
		c-3.485,0-4.311,2.115-4.774,4.25c-0.463,2.176-0.423,4.21,3.183,4.21h0.128c0.012,0,0.023,0,0.035,0h0.232
		c0.014,0,0.028,0,0.042,0c0.036,0,0.072-0.001,0.108-0.001h0.026c0.143,0,0.287-0.001,0.433-0.001h0.007
		c0.952-0.004,1.907-0.011,2.295-0.014c0.099-0.002,0.195-0.082,0.216-0.179l0.146-0.713l0.028-0.14l0.175-0.851
		c0.02-0.098-0.045-0.178-0.145-0.178h-3.242c-1.29,0-1.673-0.343-1.531-1.35h5.183l-0.001,0c0.001,0,0.003,0,0.004,0
		c0.082-0.001,0.158-0.058,0.188-0.134c0.006-0.015,0.011-0.03,0.013-0.045l-0.001,0C34.82,4.634,34.6,2.679,31.304,2.679
		L31.304,2.679z"/>
	<path fill="#4E2B80" d="M14.832,5.802l-0.049,0.174c0,0,0,0,0,0l-0.392,1.387L14,8.75c-0.027,0.096-0.13,0.174-0.23,0.174h-2.071
		c-1.571,0-1.954-1.229-1.571-3.041c0.382-1.854,1.132-3.006,2.679-3.123C14.92,2.6,15.342,4.086,14.832,5.802L14.832,5.802z
		 M16.253,8.817c0,0,0.976-2.371,1.198-3.741c0.304-1.833-0.614-4.492-4.16-4.492c-3.525,0-5.056,2.539-5.641,5.298
		C7.066,8.662,7.832,11.1,11.337,11.08l2.766-0.01l2.584-0.01c0.1-0.001,0.201-0.08,0.227-0.176l0.45-1.718
		c0.025-0.096-0.036-0.176-0.135-0.176l-0.432-0.003l-0.431-0.002c-0.084-0.001-0.133-0.056-0.123-0.129
		C16.245,8.844,16.248,8.831,16.253,8.817L16.253,8.817z"/>
	<path fill="#4E2B80" d="M33.705,7.23c0,0.066-0.054,0.119-0.119,0.119s-0.119-0.053-0.119-0.119c0-0.065,0.054-0.119,0.119-0.119
		S33.705,7.165,33.705,7.23z"/>
</g>
</svg>
