<svg version="1.1" id="Layer_1" xmlns="http://www.w3.org/2000/svg" xmlns:xlink="http://www.w3.org/1999/xlink" x="0px" y="0px"
	 width="50px" height="50px" viewBox="0 0 50 50" enable-background="new 0 0 50 50" xml:space="preserve">
<g>
	<path fill="#FFFFFF" d="M23.697,0.5C10.776,1.183,0.5,11.872,0.5,24.999S10.776,48.816,23.697,49.5h0.602l2.826-0.066
		c0.675,0,1.217-0.148,1.618-0.445c0.4-0.299,0.707-0.68,0.922-1.143c0.21-0.471,0.356-1,0.441-1.594s0.129-1.209,0.129-1.848
		V33.271c0-1.568,0.211-2.877,0.633-3.914c0.423-1.039,0.933-1.867,1.523-2.479c0.593-0.615,1.193-1.06,1.809-1.338
		c0.613-0.276,1.111-0.436,1.493-0.477v-0.129c-0.382-0.083-0.88-0.286-1.493-0.604c-0.615-0.319-1.216-0.794-1.809-1.431
		c-0.591-0.637-1.101-1.454-1.523-2.448c-0.422-0.999-0.633-2.219-0.633-3.66V5.591c0-0.635-0.044-1.25-0.129-1.845
		c-0.085-0.596-0.231-1.134-0.441-1.623c-0.215-0.487-0.521-0.869-0.922-1.146c-0.401-0.275-0.943-0.413-1.618-0.413"/>
	<path fill="#FFFFFF" d="M34.483,2.343c0.19,0.731,0.319,1.5,0.319,2.355v11.201c0,1.104,0.159,2.099,0.478,2.991
		c0.317,0.891,0.729,1.645,1.235,2.258c0.51,0.616,1.091,1.093,1.747,1.432c0.654,0.34,1.319,0.51,1.998,0.51v3.817
		c-0.679,0-1.344,0.158-1.998,0.477c-0.656,0.32-1.237,0.797-1.747,1.432c-0.506,0.637-0.918,1.398-1.235,2.291
		c-0.318,0.891-0.478,1.91-0.478,3.057v11.135c0,0.854-0.123,1.621-0.305,2.35C43.311,43.928,49.5,35.189,49.5,24.999
		C49.5,14.802,43.302,6.061,34.483,2.343z"/>
</g>
</svg>
