<svg version="1.1" id="Layer_1" xmlns="http://www.w3.org/2000/svg" xmlns:xlink="http://www.w3.org/1999/xlink" x="0px" y="0px"
	 width="26.275px" height="26.345px" viewBox="0 0 26.275 26.345" enable-background="new 0 0 26.275 26.345" xml:space="preserve">
<path fill="#FFFFFF" d="M25.724,23.69l-6.74-6.741c1.306-1.745,2.09-3.903,2.09-6.245c0-5.764-4.691-10.453-10.459-10.453
	c-5.763,0-10.451,4.689-10.451,10.453c0,5.766,4.688,10.456,10.451,10.456c2.344,0,4.502-0.784,6.248-2.09l6.74,6.741
	c0.293,0.293,0.677,0.439,1.061,0.439s0.768-0.146,1.061-0.439C26.31,25.226,26.31,24.276,25.724,23.69z M3.163,10.704
	c0-4.11,3.343-7.453,7.451-7.453c4.113,0,7.459,3.343,7.459,7.453c0,4.111-3.346,7.456-7.459,7.456
	C6.506,18.16,3.163,14.815,3.163,10.704z"/>
</svg>
