<svg version="1.1" id="Layer_1" xmlns="http://www.w3.org/2000/svg" xmlns:xlink="http://www.w3.org/1999/xlink" x="0px" y="0px"
	 width="50px" height="11.2px" viewBox="0 0 50 11.2" enable-background="new 0 0 50 11.2" xml:space="preserve">
<g>
	<g transform="translate(0.738281, 121.593)">
		<path fill="#FFFFFF" d="M-0.239-113.14h1.725v-6.811l2.67,5.936c0.315,0.719,0.746,0.975,1.592,0.975s1.26-0.256,1.576-0.975
			l2.67-5.936v6.811h1.725v-6.8c0-0.663-0.265-0.984-0.812-1.15c-1.31-0.409-2.189-0.055-2.587,0.83l-2.62,5.859l-2.537-5.859
			c-0.381-0.885-1.277-1.239-2.587-0.83c-0.547,0.166-0.812,0.487-0.812,1.15V-113.14z"/>
	</g>
	<g transform="translate(100.444, 142.416)">
		<path fill="#FFFFFF" d="M-86.553-139.508h1.724v3.753c-0.016,0.203,0.066,0.682,1.01,0.695c0.482,0.008,3.72,0,3.75,0v-4.467
			h1.729c0.008,0-0.002,6.094-0.002,6.119c0.01,1.502-1.864,1.828-2.728,1.854h-5.446v-1.16c0.009,0,5.442,0.002,5.456,0
			c1.11-0.117,0.979-0.67,0.979-0.855v-0.451h-3.666c-1.706-0.016-2.792-0.76-2.805-1.617
			C-86.554-135.717-86.516-139.47-86.553-139.508z"/>
	</g>
	<g transform="translate(171.496, 124.557)" opacity="0.8">
		<path fill="#FFFFFF" d="M-148.063-116.104h4.958c0.58,0,1.145-0.123,1.593-0.332c0.745-0.344,1.11-0.807,1.11-1.416v-1.26
			c0-0.498-0.414-0.962-1.228-1.271c-0.431-0.166-0.962-0.254-1.476-0.254h-2.09c-0.696,0-1.028-0.21-1.111-0.674
			c-0.017-0.056-0.017-0.1-0.017-0.155v-0.785c0-0.045,0-0.089,0.017-0.144c0.083-0.354,0.266-0.454,0.878-0.509
			c0.051,0,0.117-0.011,0.166-0.011h4.926v-1.15h-4.843c-0.696,0-1.061,0.044-1.393,0.143c-1.028,0.321-1.476,0.83-1.476,1.714
			v1.006c0,0.774,0.879,1.438,2.355,1.592c0.166,0.011,0.331,0.022,0.497,0.022h1.791c0.066,0,0.133,0,0.183,0.011
			c0.548,0.044,0.779,0.144,0.945,0.342c0.1,0.1,0.133,0.199,0.133,0.31v1.005c0,0.123-0.083,0.277-0.248,0.41
			c-0.149,0.133-0.398,0.221-0.73,0.242c-0.066,0-0.116,0.012-0.183,0.012h-4.759V-116.104z"/>
	</g>
	<g transform="translate(308.656, 124.557)" opacity="0.8">
		<path fill="#FFFFFF" d="M-266.802-118.106c0,1.184,0.879,1.846,2.653,1.979c0.166,0.012,0.332,0.023,0.497,0.023h4.495v-1.15
			h-4.528c-1.011,0-1.393-0.254-1.393-0.862v-5.948h-1.725V-118.106z"/>
	</g>
	<g transform="translate(236.74, 124.666)" opacity="0.8">
		<path fill="#FFFFFF" d="M-204.545-118.155v-4.1c0-1.041,0.731-1.673,2.177-1.873c0.15-0.021,0.316-0.033,0.466-0.033h3.273
			c0.166,0,0.316,0.011,0.482,0.033c1.446,0.2,2.177,0.832,2.177,1.873v4.1c0,0.846-0.311,1.297-1.026,1.592l1.699,1.533h-2.002
			l-1.375-1.24l-1.384,0.088h-1.845c-0.315,0-0.648-0.045-1.014-0.145C-204.012-116.625-204.545-117.202-204.545-118.155z
			 M-202.682-118.254c0,0.055,0.016,0.111,0.033,0.178c0.099,0.477,0.548,0.742,1.229,0.742h1.566l-1.439-1.3h2.003l1.255,1.134
			c0.231-0.125,0.385-0.312,0.438-0.555c0.017-0.055,0.017-0.111,0.017-0.166v-3.933c0-0.044,0-0.1-0.017-0.155
			c-0.1-0.443-0.549-0.698-1.213-0.698h-2.609c-0.765,0-1.263,0.332-1.263,0.853V-118.254z"/>
	</g>
</g>
</svg>
