<svg version="1.1" id="Layer_1" xmlns="http://www.w3.org/2000/svg" xmlns:xlink="http://www.w3.org/1999/xlink" x="0px" y="0px"
	 width="50px" height="24.8px" viewBox="0 0 50 24.8" enable-background="new 0 0 50 24.8" xml:space="preserve">
<g>
	<path fill="#FFFFFF" d="M28.565,5.599h-4.187l0.937-4.885h-4.426l-3.71,18.825h4.408l2.094-10.45h3.489
		c1.625,0,1.628,0.693,1.396,1.855l-1.634,8.595h4.646l1.634-9.532C33.678,7.685,32.281,5.831,28.565,5.599z"/>
	<path fill="#FFFFFF" d="M12.992,5.599H4.415L0.687,24.406h4.408l0.937-4.867h4.188c3.948,0.232,8.356-3.021,8.356-8.595
		C18.575,7.692,16.708,5.831,12.992,5.599z M9.741,16.049H6.968l1.157-6.96h3.012c1.625,0,2.792,0.682,2.792,2.075
		C13.696,15.112,11.831,15.817,9.741,16.049z"/>
	<path fill="#FFFFFF" d="M44.122,5.599h-8.834l-3.472,18.807h4.408l0.937-4.867h3.949c3.948,0.232,8.344-3.021,8.576-8.595
		C49.687,7.692,47.838,5.831,44.122,5.599z M44.82,11.164c0,3.948-1.866,4.653-4.188,4.885h-2.773l1.377-6.96h2.792
		C43.887,9.089,45.052,9.771,44.82,11.164z"/>
</g>
</svg>
