<svg version="1.1" id="Layer_1" xmlns="http://www.w3.org/2000/svg" xmlns:xlink="http://www.w3.org/1999/xlink" x="0px" y="0px"
	 width="50px" height="20.375px" viewBox="0 14.25 50 20.375" enable-background="new 0 14.25 50 20.375" xml:space="preserve">
<g>
	<path fill="#FFFFFF" d="M11.708,14.994c-1.395,0.08-2.379,0.304-3.801,0.87c-1.91,0.76-3.529,1.687-4.832,2.771
		c-0.348,0.289-1.088,1.035-1.334,1.341C0.99,20.917,0.584,21.771,0.5,22.584c-0.03,0.285,0.004,0.533,0.118,0.871
		c0.337,1.011,1.205,1.978,2.786,3.104c0.147,0.106,0.523,0.369,0.835,0.586c0.623,0.432,0.87,0.609,1.092,0.793
		c0.173,0.141,0.187,0.113-0.167,0.295c-0.949,0.482-1.856,1.063-2.497,1.604c-0.276,0.23-0.708,0.686-0.847,0.891
		c-0.465,0.682-0.625,1.53-0.412,2.207c0.153,0.484,0.479,0.881,0.817,0.984c0.396,0.123,1.062,0.165,1.486,0.092
		c0.857-0.146,1.577-0.516,2.216-1.137c0.571-0.557,0.931-1.171,1.126-1.93c0.23-0.897,0.189-1.862-0.112-2.586
		c-0.033-0.082-0.059-0.152-0.055-0.156c0.024-0.018,0.668-0.391,0.903-0.523c0.452-0.255,0.507-0.285,0.507-0.27
		c0,0.009-0.018,0.072-0.04,0.145c-0.209,0.668-0.324,1.627-0.261,2.148c0.112,0.902,0.509,1.748,0.917,1.945
		c0.25,0.119,0.621,0.106,0.855-0.029c0.125-0.074,0.272-0.229,0.396-0.415c0.133-0.204,0.489-0.927,0.698-1.423
		c0.092-0.213,0.169-0.391,0.175-0.396c0.006-0.005,0.004,0.04-0.004,0.1c-0.055,0.433-0.043,1,0.026,1.277
		c0.104,0.401,0.319,0.612,0.631,0.616c0.25,0.004,0.539-0.199,0.832-0.587c0.272-0.363,1.203-2.131,1.679-3.186
		c0.205-0.457,0.479-1.102,0.625-1.463c0.054-0.138,0.105-0.257,0.113-0.266c0.01-0.01,0.022,0.021,0.03,0.068
		c0.024,0.149,0.189,0.807,0.252,0.994c0.034,0.103,0.162,0.396,0.283,0.649l0.219,0.463l-0.04,0.054
		c-0.022,0.029-0.087,0.121-0.147,0.203c-0.137,0.191-0.465,0.598-0.983,1.211c-0.604,0.725-0.704,0.875-0.706,1.086
		c0,0.185,0.151,0.344,0.374,0.392c0.157,0.03,0.603,0.011,0.839-0.04c0.593-0.127,1.2-0.432,1.547-0.777
		c0.603-0.596,0.699-1.432,0.277-2.428l-0.03-0.068l0.234-0.351c0.38-0.571,0.701-1.119,1.18-2.027
		c0.062-0.115,0.116-0.195,0.12-0.179c0.006,0.016,0.034,0.141,0.063,0.278c0.138,0.632,0.247,0.953,0.497,1.453l0.134,0.265
		l-0.098,0.082c-0.324,0.271-0.682,0.672-0.911,1.017c-0.265,0.396-0.417,0.773-0.469,1.153c-0.066,0.493,0.181,0.825,0.61,0.825
		c0.173,0,0.625-0.149,0.967-0.318c0.555-0.275,1.03-0.714,1.239-1.145c0.113-0.229,0.149-0.385,0.149-0.647
		c0-0.25-0.038-0.466-0.133-0.76c-0.038-0.119-0.065-0.22-0.062-0.224c0.022-0.021,0.402-0.142,0.597-0.188
		c0.625-0.154,1.424-0.172,2.144-0.048c1.169,0.198,1.991,0.807,2.229,1.647c0.063,0.223,0.065,0.521,0.004,0.717
		c-0.096,0.301-0.32,0.572-0.657,0.804c-0.161,0.106-0.185,0.132-0.185,0.18c0,0.083,0.042,0.107,0.166,0.099
		c0.207-0.02,0.521-0.203,0.77-0.453c0.333-0.334,0.479-0.686,0.483-1.155c0.002-0.636-0.258-1.228-0.771-1.739
		c-0.798-0.798-2.057-1.154-3.451-0.974c-0.465,0.062-1.054,0.225-1.442,0.405c-0.136,0.062-0.181,0.074-0.195,0.058
		c-0.056-0.081-0.4-0.806-0.443-0.937c-0.056-0.17-0.127-0.66-0.127-0.895c0-0.305,0.065-0.626,0.229-1.11
		c0.05-0.147,0.089-0.287,0.089-0.312c0-0.071-0.109-0.179-0.225-0.219c-0.143-0.05-0.663-0.05-0.919,0.002
		c-0.195,0.038-0.348,0.096-0.394,0.147c-0.038,0.042-0.16,0.423-0.211,0.664c-0.069,0.32-0.161,0.545-0.467,1.14
		c-0.271,0.529-1.041,1.896-1.104,1.965c-0.018,0.019-0.241-0.438-0.3-0.612c-0.022-0.065-0.054-0.201-0.07-0.298
		c-0.107-0.676-0.08-0.975,0.161-1.705l0.109-0.336l-0.035-0.062c-0.084-0.143-0.32-0.205-0.713-0.189
		c-0.288,0.014-0.439,0.038-0.616,0.095c-0.199,0.064-0.201,0.07-0.298,0.438c-0.047,0.179-0.102,0.37-0.119,0.425
		c-0.066,0.193-0.561,1.324-1.381,3.152c-0.411,0.918-0.909,1.932-0.988,2.018c-0.047,0.052-0.056,0.054-0.074,0.021
		c-0.01-0.021-0.014-0.164-0.008-0.347c0.006-0.249,0.022-0.37,0.071-0.608c0.08-0.363,0.253-1.062,0.436-1.74
		c0.165-0.612,0.171-0.635,0.143-0.733c-0.038-0.144-0.219-0.271-0.418-0.295c-0.137-0.017-0.223,0.006-0.34,0.088
		c-0.06,0.04-0.1,0.058-0.092,0.04c0.03-0.08,0.058-0.461,0.048-0.65c-0.038-0.669-0.332-0.982-0.897-0.949
		c-0.402,0.021-0.913,0.271-1.404,0.68c-0.191,0.159-0.559,0.539-0.685,0.707c-0.067,0.091-0.129,0.146-0.208,0.19
		c-0.062,0.033-0.631,0.347-1.263,0.693l-1.151,0.631L6.161,27.32c-0.36-0.355-0.621-0.575-1.38-1.157
		c-0.771-0.591-1.251-1.005-1.522-1.303c-0.434-0.479-0.66-0.861-0.786-1.321c-0.045-0.175-0.052-0.227-0.052-0.561
		c0-0.306,0.008-0.402,0.044-0.571c0.116-0.529,0.386-1.06,0.812-1.597c0.185-0.232,0.766-0.81,1.042-1.035
		c0.849-0.69,1.796-1.285,3.017-1.897c1.42-0.712,2.647-1.109,3.974-1.289c0.45-0.059,1.436-0.065,1.802-0.009
		c0.784,0.117,1.335,0.352,1.681,0.714c0.133,0.137,0.217,0.287,0.286,0.503c0.068,0.21,0.078,0.626,0.022,0.896
		c-0.139,0.674-0.521,1.345-1.131,1.979c-0.899,0.935-2.134,1.633-3.515,1.983c-1.352,0.344-2.4,0.32-3.194-0.076
		c-0.227-0.111-0.388-0.229-0.569-0.412c-0.177-0.179-0.217-0.195-0.294-0.115c-0.062,0.06-0.062,0.12-0.004,0.291
		c0.065,0.189,0.163,0.34,0.342,0.525c0.199,0.205,0.436,0.378,0.704,0.515c0.353,0.179,0.637,0.262,1.146,0.334
		c0.241,0.034,1.22,0.034,1.532,0c0.917-0.101,1.901-0.356,2.705-0.698c1.901-0.813,3.429-2.655,3.66-4.41
		c0.055-0.434,0.035-0.887-0.062-1.27c-0.314-1.257-1.639-2.114-3.568-2.307C12.556,15.004,11.921,14.982,11.708,14.994z
		 M11.189,25.745c0.044,0.032,0.052,0.055,0.052,0.147c0,0.221-0.118,0.682-0.353,1.379c-0.141,0.429-0.65,1.75-0.83,2.16
		c-0.223,0.51-0.438,0.825-0.561,0.825c-0.189,0-0.312-0.417-0.312-1.054c0-0.725,0.145-1.348,0.476-2.02
		c0.151-0.311,0.348-0.643,0.501-0.846C10.501,25.889,11,25.598,11.189,25.745z M19.386,27.919c0.026,0.123,0.032,0.216,0.024,0.354
		c-0.031,0.545-0.296,0.924-0.827,1.186c-0.181,0.087-0.187,0.089-0.215,0.052c-0.106-0.14,0.241-0.944,0.586-1.36
		c0.107-0.131,0.366-0.398,0.384-0.398C19.347,27.751,19.367,27.827,19.386,27.919z M6.036,28.88
		c0.068,0.308,0.084,0.445,0.082,0.782c0,0.527-0.086,0.893-0.316,1.361c-0.394,0.795-1.132,1.449-1.89,1.672
		c-0.207,0.062-0.581,0.089-0.716,0.051c-0.318-0.085-0.458-0.398-0.382-0.854c0.143-0.873,0.744-1.578,2.142-2.516
		c0.336-0.225,0.995-0.627,1.028-0.63C5.996,28.746,6.02,28.807,6.036,28.88z M15.976,29.061c-0.056,0.396-0.314,0.771-0.756,1.097
		c-0.241,0.179-0.414,0.261-0.475,0.224c-0.02-0.015,0.016-0.064,0.139-0.201c0.458-0.508,0.579-0.65,0.798-0.924
		c0.132-0.16,0.249-0.312,0.261-0.332C15.981,28.857,15.997,28.915,15.976,29.061z"/>
	<polygon fill="#FFFFFF" points="39.593,18.849 39.203,20.801 47.146,20.801 46.898,22.062 38.949,22.062 38.562,24.014 
		46.509,24.014 46.066,26.24 42.863,27.302 40.089,26.24 40.279,25.275 38.326,25.275 37.861,27.618 42.453,29.376 47.744,27.618 
		49.49,18.849 	"/>
	<polygon fill="#4E2B80" points="34.389,22.307 31.732,22.307 31.732,19.652 30.122,19.652 30.122,22.307 27.467,22.307 
		27.467,23.92 30.122,23.92 30.122,26.574 31.732,26.574 31.732,23.92 34.389,23.92 	"/>
</g>
</svg>
