<?xml version="1.0" encoding="utf-8"?>
<!-- Generator: Adobe Illustrator 16.0.0, SVG Export Plug-In . SVG Version: 6.00 Build 0)  -->
<!DOCTYPE svg PUBLIC "-//W3C//DTD SVG 1.1//EN" "http://www.w3.org/Graphics/SVG/1.1/DTD/svg11.dtd">
<svg version="1.1" id="Layer_1" xmlns="http://www.w3.org/2000/svg" xmlns:xlink="http://www.w3.org/1999/xlink" x="0px" y="0px"
	 width="23.566px" height="23.503px" viewBox="0 0 23.566 23.503" enable-background="new 0 0 23.566 23.503" xml:space="preserve">
<g>
	<path fill="#4E2B80" d="M11.157,0C4.942,0.328,0,5.455,0,11.751c0,6.296,4.942,11.425,11.157,11.752h0.29l1.359-0.031
		c0.325,0,0.584-0.071,0.778-0.214s0.341-0.326,0.443-0.549c0.102-0.225,0.172-0.479,0.213-0.764s0.062-0.58,0.062-0.886v-5.341
		c0-0.752,0.101-1.379,0.305-1.877c0.203-0.498,0.447-0.896,0.731-1.189c0.286-0.295,0.575-0.508,0.87-0.642
		c0.295-0.132,0.535-0.209,0.719-0.229V11.72c-0.184-0.04-0.424-0.137-0.719-0.29c-0.295-0.153-0.584-0.381-0.87-0.687
		c-0.284-0.305-0.528-0.698-0.731-1.174c-0.204-0.479-0.305-1.064-0.305-1.755V2.442c0-0.305-0.021-0.6-0.062-0.885
		c-0.041-0.286-0.111-0.544-0.213-0.778c-0.103-0.234-0.25-0.417-0.443-0.55c-0.193-0.132-0.453-0.198-0.778-0.198"/>
	<path fill="#7F3F98" d="M16.343,0.884c0.092,0.351,0.156,0.72,0.156,1.13v5.373c0,0.529,0.076,1.006,0.229,1.435
		c0.152,0.427,0.351,0.789,0.596,1.083c0.242,0.295,0.523,0.524,0.839,0.687c0.314,0.163,0.635,0.245,0.962,0.245v1.831
		c-0.327,0-0.647,0.075-0.962,0.229c-0.315,0.153-0.597,0.382-0.839,0.687c-0.245,0.306-0.443,0.672-0.596,1.1
		c-0.152,0.427-0.229,0.916-0.229,1.465v5.342c0,0.408-0.061,0.777-0.147,1.127c4.238-1.785,7.215-5.977,7.215-10.864
		C23.566,6.86,20.586,2.667,16.343,0.884z"/>
</g>
</svg>
