<svg version="1.1" id="Layer_1" xmlns="http://www.w3.org/2000/svg" xmlns:xlink="http://www.w3.org/1999/xlink" x="0px" y="0px"
	 width="50px" height="50px" viewBox="0 0 50 50" enable-background="new 0 0 50 50" xml:space="preserve">
<g>
	<path fill="#FFFFFF" d="M3.982,24.748c0,8.319,4.834,15.509,11.846,18.915L5.802,16.195C4.636,18.809,3.982,21.702,3.982,24.748z"
		/>
	<path fill="#FFFFFF" d="M39.188,23.688c0-2.597-0.933-4.396-1.732-5.796c-1.065-1.731-2.065-3.198-2.065-4.929
		c0-1.932,1.466-3.73,3.53-3.73c0.093,0,0.181,0.012,0.272,0.017C35.453,5.823,30.472,3.732,25,3.732
		c-7.342,0-13.802,3.767-17.561,9.473c0.494,0.015,0.958,0.025,1.353,0.025c2.198,0,5.601-0.267,5.601-0.267
		c1.133-0.067,1.267,1.597,0.135,1.731c0,0-1.139,0.134-2.406,0.2l7.654,22.767l4.599-13.795l-3.275-8.972
		c-1.131-0.067-2.204-0.2-2.204-0.2c-1.132-0.066-1-1.798,0.132-1.731c0,0,3.471,0.267,5.537,0.267c2.197,0,5.6-0.267,5.6-0.267
		c1.135-0.067,1.268,1.597,0.136,1.731c0,0-1.141,0.134-2.405,0.2l7.595,22.593l2.097-7.004
		C38.497,27.575,39.188,25.487,39.188,23.688z"/>
	<path fill="#FFFFFF" d="M25.369,26.587l-6.306,18.324c1.882,0.553,3.874,0.855,5.937,0.855c2.447,0,4.795-0.422,6.979-1.191
		c-0.057-0.09-0.106-0.186-0.149-0.289L25.369,26.587z"/>
	<path fill="#FFFFFF" d="M43.442,14.665c0.09,0.669,0.141,1.388,0.141,2.161c0,2.132-0.398,4.53-1.598,7.528l-6.42,18.561
		c6.249-3.643,10.451-10.412,10.451-18.167C46.017,21.094,45.083,17.659,43.442,14.665z"/>
	<path fill="#FFFFFF" d="M25,0.249c-13.509,0-24.5,10.99-24.5,24.499c0,13.511,10.99,24.501,24.5,24.501
		c13.508,0,24.5-10.99,24.5-24.501C49.5,11.239,38.508,0.249,25,0.249z M25,48.126c-12.889,0-23.376-10.486-23.376-23.378
		C1.624,11.859,12.111,1.372,25,1.372c12.89,0,23.375,10.487,23.375,23.376C48.375,37.64,37.89,48.126,25,48.126z"/>
</g>
</svg>
